<svg width="24" height="24" viewBox="0 0 24 24" fill="none" xmlns="http://www.w3.org/2000/svg">
<path d="M18.09 2H6C4.93913 2 3.92172 2.42143 3.17157 3.17157C2.42143 3.92172 2 4.93913 2 6V18C2 19.0609 2.42143 20.0783 3.17157 20.8284C3.92172 21.5786 4.93913 22 6 22H18.09C19.1509 22 20.1683 21.5786 20.9184 20.8284C21.6686 20.0783 22.09 19.0609 22.09 18V5.93C22.0716 4.88131 21.6421 3.88179 20.894 3.14672C20.1458 2.41164 19.1388 1.99984 18.09 2ZM17.43 13H9.1L10.74 14.65C10.877 14.7898 10.97 14.9667 11.0075 15.1588C11.0449 15.351 11.0252 15.5498 10.9506 15.7308C10.8761 15.9118 10.7501 16.067 10.5882 16.1771C10.4263 16.2871 10.2357 16.3473 10.04 16.35C9.90406 16.3431 9.77098 16.3084 9.64889 16.2482C9.52681 16.1881 9.4183 16.1036 9.33 16L6 12.68C5.90627 12.587 5.83188 12.4764 5.78111 12.3546C5.73034 12.2327 5.7042 12.102 5.7042 11.97C5.7042 11.838 5.73034 11.7073 5.78111 11.5854C5.83188 11.4636 5.90627 11.353 6 11.26L9.33 7.91C9.5213 7.74617 9.76738 7.66057 10.0191 7.67029C10.2707 7.68001 10.5095 7.78434 10.6876 7.96244C10.8657 8.14053 10.97 8.37927 10.9797 8.63095C10.9894 8.88262 10.9038 9.1287 10.74 9.32L9.1 11H17.43C17.6952 11 17.9496 11.1054 18.1371 11.2929C18.3246 11.4804 18.43 11.7348 18.43 12C18.43 12.2652 18.3246 12.5196 18.1371 12.7071C17.9496 12.8946 17.6952 13 17.43 13Z" fill="#2795A0"/>
</svg>
