<svg width="24" height="24" viewBox="0 0 24 24" fill="none" xmlns="http://www.w3.org/2000/svg">
<path d="M21 17.69C21.0032 18.0368 20.9244 18.3795 20.77 18.69C20.6153 19.0263 20.4095 19.3367 20.16 19.61C19.7536 20.0737 19.2477 20.4395 18.68 20.68C18.1447 20.8899 17.575 20.9984 17 21C15.9653 20.9885 14.944 20.7638 14 20.34C12.8984 19.864 11.8549 19.2635 10.89 18.55C9.82562 17.7898 8.82254 16.9472 7.89 16.03C6.9752 15.0953 6.13278 14.0924 5.37 13.03C4.68808 12.0857 4.11133 11.0696 3.65 10C3.23207 9.05449 3.01092 8.03378 3 7.00004C3.00138 6.41759 3.11337 5.84071 3.33 5.30004C3.5435 4.72687 3.8856 4.2103 4.33 3.79004C4.57061 3.52985 4.86096 3.32056 5.18388 3.17456C5.5068 3.02856 5.85572 2.94882 6.21 2.94004C6.48332 2.93077 6.75469 2.98917 7 3.11004C7.24535 3.21759 7.45639 3.39057 7.61 3.61004L9.67 6.56004C9.8033 6.76053 9.91397 6.97518 10 7.20004C10.0797 7.37281 10.124 7.55985 10.13 7.75004C10.1279 7.97697 10.0621 8.19875 9.94 8.39004C9.80619 8.61268 9.64492 8.81762 9.46 9.00004L8.78 9.71004C8.73169 9.75658 8.69344 9.81255 8.66764 9.87448C8.64184 9.9364 8.62903 10.003 8.63 10.07C8.61959 10.1397 8.61959 10.2104 8.63 10.28C8.65866 10.3378 8.68209 10.3981 8.7 10.46C8.9471 10.8695 9.22809 11.2575 9.54 11.62C9.95 12.09 10.38 12.56 10.85 13.04C11.32 13.52 11.85 13.96 12.29 14.37C12.647 14.686 13.0357 14.9641 13.45 15.2L13.61 15.27C13.686 15.2844 13.764 15.2844 13.84 15.27C13.9087 15.2718 13.977 15.2594 14.0406 15.2336C14.1043 15.2078 14.1619 15.1691 14.21 15.12L14.9 14.44C15.0879 14.2362 15.3073 14.064 15.55 13.93C15.7417 13.8089 15.9632 13.7432 16.19 13.74C16.3793 13.7445 16.566 13.7852 16.74 13.86C16.9609 13.956 17.1719 14.0732 17.37 14.21L20.37 16.33C20.5837 16.4772 20.7559 16.677 20.87 16.91C20.9684 17.1578 21.0128 17.4237 21 17.69V17.69Z" stroke="#2EBCA6" stroke-width="2" stroke-miterlimit="10"/>
</svg>
