<svg width="24" height="24" viewBox="0 0 24 24" fill="none" xmlns="http://www.w3.org/2000/svg">
<path d="M18.62 5.79999H16.38C16.15 5.36999 15.9 4.86999 15.59 4.27999C15.4889 4.07985 15.3347 3.91144 15.1441 3.79324C14.9536 3.67505 14.7342 3.61164 14.51 3.60999H9.51C9.2858 3.61164 9.06639 3.67505 8.87586 3.79324C8.68534 3.91144 8.53107 4.07985 8.43 4.27999C8.12 4.86999 7.87 5.36999 7.64 5.79999H5.38C4.48357 5.79999 3.62385 6.15609 2.98998 6.78996C2.35611 7.42384 2 8.28355 2 9.17999V17C2 17.8964 2.35611 18.7561 2.98998 19.39C3.62385 20.0239 4.48357 20.38 5.38 20.38H18.62C19.5164 20.38 20.3761 20.0239 21.01 19.39C21.6439 18.7561 22 17.8964 22 17V9.17999C22 8.28355 21.6439 7.42384 21.01 6.78996C20.3761 6.15609 19.5164 5.79999 18.62 5.79999ZM5.5 10.51C5.30222 10.51 5.10888 10.4513 4.94443 10.3415C4.77998 10.2316 4.65181 10.0754 4.57612 9.89267C4.50043 9.70994 4.48063 9.50888 4.51921 9.3149C4.5578 9.12091 4.65304 8.94273 4.79289 8.80288C4.93275 8.66303 5.11093 8.56779 5.30491 8.5292C5.49889 8.49062 5.69996 8.51042 5.88268 8.58611C6.06541 8.66179 6.22159 8.78997 6.33147 8.95442C6.44135 9.11886 6.5 9.3122 6.5 9.50999C6.5 9.7752 6.39464 10.0296 6.20711 10.2171C6.01957 10.4046 5.76522 10.51 5.5 10.51ZM12 16.76C11.2587 16.76 10.5341 16.5403 9.91765 16.1287C9.30119 15.7171 8.82054 15.132 8.53642 14.4473C8.2523 13.7627 8.17745 13.0092 8.32134 12.2821C8.46523 11.5549 8.82139 10.8867 9.34483 10.3619C9.86828 9.83703 10.5355 9.47909 11.2623 9.33326C11.9891 9.18744 12.7428 9.26028 13.4281 9.54258C14.1135 9.82487 14.6999 10.304 15.1132 10.9193C15.5264 11.5347 15.748 12.2587 15.75 13C15.7513 13.4933 15.6553 13.982 15.4674 14.4381C15.2796 14.8942 15.0035 15.3088 14.6552 15.6581C14.3068 16.0074 13.893 16.2845 13.4374 16.4736C12.9818 16.6627 12.4933 16.76 12 16.76Z" fill="white"/>
</svg>
