<svg width="32" height="24" viewBox="0 0 32 24" fill="none" xmlns="http://www.w3.org/2000/svg">
<path d="M15.9267 17.1846C18.5465 17.1846 20.6703 15.0608 20.6703 12.441C20.6703 9.82118 18.5465 7.6974 15.9267 7.6974C13.3069 7.6974 11.1831 9.82118 11.1831 12.441C11.1831 15.0608 13.3069 17.1846 15.9267 17.1846Z" fill="#52CCBD"/>
<path d="M27.8056 6.60951C25.2736 3.90511 22.0021 2.0051 18.3984 1.14599L18.1504 1.082C17.8464 1.026 17.5585 0.986006 17.2865 0.946009H17.0065C16.6225 0.946009 16.2626 0.890015 15.9426 0.890015C15.5926 0.890191 15.2428 0.908882 14.8947 0.946009L14.4867 0.994006L13.9988 1.066C13.7748 1.106 13.5508 1.14599 13.3348 1.20199C9.78485 2.07154 6.56224 3.94954 4.05564 6.60951C0.775932 9.88122 0 11.7771 0 12.441C0 14.1928 3.15972 17.5685 4.44761 18.7764C6.91939 21.0802 10.5351 23.48 14.6307 23.944H14.8227C15.1827 23.944 15.5506 24 15.9186 24C16.2946 24 16.6625 24 17.0385 23.944H17.1265C21.2541 23.536 24.9018 21.1042 27.3816 18.7684C28.6775 17.5606 31.8372 14.1848 31.8372 12.433C31.8612 11.7771 31.0853 9.88122 27.8056 6.60951ZM15.9346 19.8883C14.4613 19.8899 13.0207 19.4545 11.7949 18.6371C10.5691 17.8198 9.61335 16.6572 9.04845 15.2965C8.48355 13.9358 8.33493 12.4382 8.62138 10.993C8.90783 9.54783 9.61649 8.2201 10.6577 7.17777C11.6989 6.13544 13.0259 5.42535 14.4708 5.13734C15.9156 4.84934 17.4134 4.99635 18.7747 5.55979C20.136 6.12322 21.2996 7.07776 22.1183 8.30265C22.937 9.52753 23.3739 10.9677 23.3739 12.441C23.375 13.4186 23.1833 14.3869 22.81 15.2904C22.4366 16.1939 21.8888 17.0149 21.1978 17.7066C20.5069 18.3982 19.6865 18.9469 18.7834 19.3213C17.8803 19.6957 16.9122 19.8883 15.9346 19.8883Z" fill="#52CCBD"/>
</svg>
