<svg width="22" height="30" viewBox="0 0 22 30" fill="none" xmlns="http://www.w3.org/2000/svg">
<path d="M21.1112 17.4515C20.8452 15.9561 22.057 14.3336 17.7859 10.4231C17.0469 9.67536 18.5248 9.32393 19.2638 9.2043C19.3905 9.18807 19.5108 9.1389 19.6132 9.06159C19.7155 8.98428 19.7962 8.88146 19.8476 8.76315C20.1801 7.97058 20.7195 6.19103 19.2638 5.34612C19.1308 3.60396 18.8943 2.13845 16.2193 1.96648C16.0863 1.05427 15.8424 0.553305 15.3399 0.628076C14.8374 0.702847 14.7488 1.67487 14.4532 1.67487C14.1576 1.67487 14.5123 0.28413 13.3078 0.299084C12.2659 0.299084 12.7314 1.67487 12.5689 1.74964C12.2437 1.06922 12.1403 0 11.5787 0C11.017 0 9.73127 0.426194 9.67954 0.800049C9.71701 1.3532 9.79357 1.90292 9.90861 2.44501C9.90861 2.94597 9.16966 3.70116 9.16966 3.70116C9.16966 3.70116 7.59568 1.62253 7.07103 2.1534C5.06297 4.05468 3.81405 6.63532 3.56098 9.40618C3.50187 10.0567 2.03874 11.3951 1.1446 13.3765C0.494319 14.8046 -0.333312 16.472 0.139619 18.5058C0.708615 21.063 2.6299 23.2313 4.63986 24.966C6.13983 26.3374 7.84282 27.4626 9.68693 28.3008C11.8225 29.0485 16.8474 30.5439 18.983 29.7962C20.3205 29.3401 21.6211 26.1623 21.9388 22.2743C22.2344 18.8198 21.3772 18.9619 21.1112 17.4515ZM19.6333 18.5058H14.8079C14.3225 18.4872 13.8496 18.3443 13.4335 18.0907C13.0174 17.837 12.6716 17.4808 12.4285 17.0553L11.6895 15.6196L9.65737 20.8536C9.59191 21.1136 9.44633 21.3458 9.24173 21.5166C9.03713 21.6873 8.78413 21.7877 8.51938 21.8032C8.25462 21.7877 8.00162 21.6873 7.79702 21.5166C7.59242 21.3458 7.44685 21.1136 7.38139 20.8536L6.27295 18.0123C6.16357 17.8017 6.00314 17.6226 5.80669 17.4918C5.61024 17.361 5.3842 17.2829 5.14974 17.2646H1.95745C1.76147 17.2646 1.57351 17.1858 1.43493 17.0456C1.29635 16.9054 1.21849 16.7152 1.21849 16.5169C1.21849 16.3186 1.29635 16.1284 1.43493 15.9882C1.57351 15.848 1.76147 15.7692 1.95745 15.7692H5.14974C5.68428 15.7908 6.20217 15.9634 6.64486 16.2673C7.08755 16.5712 7.43738 16.9943 7.6548 17.4889L8.52677 19.732L10.5219 14.6102C10.5815 14.3658 10.7172 14.1473 10.9089 13.9868C11.1005 13.8264 11.3381 13.7325 11.5866 13.7191C11.835 13.7057 12.0811 13.7735 12.2886 13.9124C12.496 14.0513 12.6539 14.254 12.7388 14.4906L13.7438 16.4272C13.8611 16.6116 14.0187 16.7661 14.2045 16.8789C14.3903 16.9918 14.5993 17.0598 14.8153 17.0777H19.6407C19.8366 17.0777 20.0246 17.1565 20.1632 17.2967C20.3018 17.4369 20.3796 17.6271 20.3796 17.8254C20.3796 18.0237 20.3018 18.2139 20.1632 18.3541C20.0246 18.4943 19.8366 18.5731 19.6407 18.5731L19.6333 18.5058Z" fill="#FEA6A2"/>
</svg>
