<svg width="55" height="54" viewBox="0 0 55 54" fill="none" xmlns="http://www.w3.org/2000/svg">
<rect x="0.659912" width="54" height="54" rx="27" fill="#FFAE55"/>
<path d="M31.7766 16.3942C31.68 16.293 31.5555 16.223 31.419 16.1928C31.2824 16.1627 31.14 16.174 31.0099 16.2251C30.8797 16.2762 30.7677 16.3649 30.6882 16.4799C30.6087 16.5949 30.5652 16.731 30.5632 16.8708V20.6517C30.5803 21.4285 30.9024 22.1674 31.4598 22.7086C32.0173 23.2499 32.7654 23.55 33.5424 23.5442H37.2257C37.3618 23.5483 37.496 23.5118 37.6111 23.4391C37.7261 23.3665 37.8169 23.2611 37.8716 23.1365C37.9264 23.0118 37.9426 22.8737 37.9182 22.7398C37.8939 22.6059 37.83 22.4823 37.7349 22.385C36.1749 20.825 33.3799 17.9975 31.7766 16.3942Z" fill="white"/>
<path d="M36.8682 25.0391H33.7374C33.1253 25.0406 32.5189 24.9211 31.953 24.6875C31.3872 24.4539 30.8731 24.1108 30.4403 23.6779C30.0074 23.2451 29.6643 22.731 29.4308 22.1652C29.1972 21.5993 29.0776 20.993 29.0791 20.3808V17.25C29.101 17.1027 29.0881 16.9522 29.0414 16.8108C28.9947 16.6693 28.9156 16.5408 28.8102 16.4355C28.7049 16.3302 28.5764 16.251 28.4349 16.2043C28.2935 16.1576 28.1431 16.1447 27.9957 16.1666H21.4957C20.3635 16.2201 19.2973 16.715 18.5258 17.5453C17.7542 18.3757 17.3386 19.4752 17.3682 20.6083V33.435C17.3493 34.0058 17.4455 34.5746 17.651 35.1075C17.8565 35.6404 18.1671 36.1266 18.5643 36.5369C18.9616 36.9473 19.4373 37.2736 19.9633 37.4963C20.4892 37.719 21.0546 37.8336 21.6257 37.8333H33.6941C34.8301 37.8134 35.913 37.3481 36.7093 36.5376C37.5056 35.7271 37.9517 34.6362 37.9516 33.5V26.1225C37.9735 25.9752 37.9606 25.8247 37.9139 25.6833C37.8672 25.5418 37.7881 25.4133 37.6827 25.308C37.5774 25.2027 37.4489 25.1235 37.3074 25.0768C37.166 25.0301 37.0156 25.0172 36.8682 25.0391ZM27.1182 33.2291H22.7849C22.5694 33.2291 22.3628 33.1435 22.2104 32.9912C22.058 32.8388 21.9724 32.6321 21.9724 32.4166C21.9724 32.2012 22.058 31.9945 22.2104 31.8421C22.3628 31.6897 22.5694 31.6041 22.7849 31.6041H27.1182C27.3337 31.6041 27.5404 31.6897 27.6928 31.8421C27.8451 31.9945 27.9307 32.2012 27.9307 32.4166C27.9307 32.6321 27.8451 32.8388 27.6928 32.9912C27.5404 33.1435 27.3337 33.2291 27.1182 33.2291ZM29.2849 28.8958H22.7849C22.5694 28.8958 22.3628 28.8102 22.2104 28.6578C22.058 28.5055 21.9724 28.2988 21.9724 28.0833C21.9724 27.8678 22.058 27.6612 22.2104 27.5088C22.3628 27.3564 22.5694 27.2708 22.7849 27.2708H29.2849C29.5004 27.2708 29.7071 27.3564 29.8594 27.5088C30.0118 27.6612 30.0974 27.8678 30.0974 28.0833C30.0974 28.2988 30.0118 28.5055 29.8594 28.6578C29.7071 28.8102 29.5004 28.8958 29.2849 28.8958Z" fill="white"/>
</svg>
