<svg width="55" height="54" viewBox="0 0 55 54" fill="none" xmlns="http://www.w3.org/2000/svg">
<rect x="0.146332" width="54" height="54" rx="27" fill="#5EDC98"/>
<path d="M27.1463 16.1667C25.8801 16.1724 24.6678 16.6794 23.7745 17.5768C22.8812 18.4741 22.3797 19.6888 22.3797 20.955V26.4908C22.3797 27.7608 22.8842 28.9787 23.7821 29.8767C24.6801 30.7747 25.8981 31.2792 27.168 31.2792C28.4379 31.2792 29.6559 30.7747 30.5539 29.8767C31.4519 28.9787 31.9563 27.7608 31.9563 26.4908V20.955C31.9563 20.3244 31.8318 19.6999 31.5898 19.1176C31.3478 18.5352 30.9931 18.0064 30.5462 17.5615C30.0993 17.1165 29.5689 16.7643 28.9854 16.5249C28.402 16.2856 27.777 16.1638 27.1463 16.1667ZM28.5655 23.75C28.5281 23.8827 28.4489 23.9997 28.3395 24.0837C28.2302 24.1676 28.0967 24.214 27.9588 24.2158H27.7855C27.3677 24.0966 26.9249 24.0966 26.5072 24.2158C26.4235 24.2498 26.3336 24.2657 26.2434 24.2625C26.1531 24.2592 26.0646 24.2368 25.9836 24.1969C25.9026 24.1569 25.831 24.1002 25.7736 24.0306C25.7161 23.9609 25.674 23.8799 25.6501 23.7928C25.6262 23.7057 25.621 23.6146 25.6349 23.5253C25.6488 23.4361 25.6815 23.3508 25.7307 23.2751C25.78 23.1995 25.8447 23.1351 25.9207 23.0862C25.9966 23.0373 26.082 23.0051 26.1713 22.9917C26.8097 22.8181 27.4829 22.8181 28.1213 22.9917C28.2809 23.0351 28.4178 23.1377 28.5044 23.2786C28.5909 23.4195 28.6205 23.5881 28.5872 23.75H28.5655ZM29.1613 21.5833C29.1171 21.7062 29.0362 21.8126 28.9297 21.8881C28.8232 21.9636 28.6961 22.0047 28.5655 22.0058C28.494 22.0201 28.4204 22.0201 28.3488 22.0058C27.5849 21.7348 26.7511 21.7348 25.9872 22.0058C25.9096 22.0343 25.8273 22.0472 25.7447 22.0438C25.6622 22.0404 25.5812 22.0208 25.5062 21.9861C25.4313 21.9514 25.3639 21.9023 25.3079 21.8415C25.252 21.7808 25.2085 21.7096 25.1801 21.6321C25.1516 21.5546 25.1387 21.4722 25.1421 21.3897C25.1455 21.3071 25.1651 21.2261 25.1998 21.1511C25.2345 21.0762 25.2836 21.0088 25.3444 20.9529C25.4051 20.8969 25.4763 20.8535 25.5538 20.825C26.6031 20.4406 27.7546 20.4406 28.8038 20.825C28.9463 20.8852 29.0616 20.9959 29.1276 21.1358C29.1935 21.2758 29.2055 21.4351 29.1613 21.5833Z" fill="white"/>
<path d="M34.9463 24.4975V25.9167C34.9884 26.9723 34.8185 28.0256 34.4468 29.0145C34.075 30.0034 33.5089 30.9077 32.7818 31.6742C32.0547 32.4406 31.1814 33.0536 30.2135 33.477C29.2456 33.9004 28.2027 34.1255 27.1463 34.1392V34.1392C22.5855 34.1392 19.3897 30.445 19.3897 25.895V24.4975" stroke="white" stroke-width="2" stroke-linecap="round" stroke-linejoin="round"/>
<path d="M27.1572 34.3125V36.75" stroke="white" stroke-width="2" stroke-linecap="round" stroke-linejoin="round"/>
</svg>
