<svg width="31" height="30" viewBox="0 0 31 30" fill="none" xmlns="http://www.w3.org/2000/svg">
<path d="M24.105 -2.27687e-05H6C4.44017 -0.0241822 2.93405 0.569367 1.81007 1.65119C0.686101 2.73302 0.0354479 4.21536 0 5.77498V24.24C0.0581779 25.7388 0.675635 27.1615 1.73069 28.2276C2.78575 29.2938 4.20187 29.9261 5.7 30H24.27C25.7935 29.9316 27.2338 29.2857 28.2982 28.1935C29.3625 27.1013 29.971 25.6447 30 24.12V6.11998C30.0159 5.33077 29.8759 4.54617 29.5881 3.81115C29.3002 3.07614 28.8702 2.40514 28.3226 1.83662C27.7749 1.2681 27.1205 0.813219 26.3968 0.498055C25.6731 0.18289 24.8943 0.013631 24.105 -2.27687e-05ZM20.04 16.995L17.04 18.705L14.04 20.43C12.135 21.525 10.59 20.625 10.59 18.435V11.565C10.59 9.37498 12.09 8.47498 14.04 9.56998L17.04 11.295L20.04 13.005C20.4601 13.1431 20.826 13.4103 21.0853 13.7685C21.3447 14.1268 21.4843 14.5577 21.4843 15C21.4843 15.4422 21.3447 15.8732 21.0853 16.2314C20.826 16.5897 20.4601 16.8569 20.04 16.995Z" fill="#F96363"/>
</svg>
