<svg width="24" height="24" viewBox="0 0 24 24" fill="none" xmlns="http://www.w3.org/2000/svg">
<path d="M16.18 7.5C16.18 7.29 16.18 7.08 16.18 6.97C16 5.13 14.82 4.5 12.47 4.5H6.79C4 4.5 3 5.45 3 8.29V16.5C3 16.71 3 16.92 3 17.03C3.15 18.87 4.35 19.5 6.7 19.5H12.38C15.22 19.5 16.17 18.55 16.17 15.71V7.5H16.18Z" stroke="#E97D68" stroke-width="2" stroke-linecap="round" stroke-linejoin="round"/>
<path d="M16.2598 14.9999L18.7598 16.7499C19.9898 17.6099 20.9998 17.0899 20.9998 15.5899V8.40995C20.9998 6.90995 19.9998 6.40995 18.7598 7.24995L16.2598 8.99995" stroke="#E97D68" stroke-width="2" stroke-linecap="round" stroke-linejoin="round"/>
</svg>
