<svg width="25" height="24" viewBox="0 0 25 24" fill="none" xmlns="http://www.w3.org/2000/svg">
<path d="M8.89297 20.1945C8.89297 17.6892 7.37833 16.5158 4.11483 16.5158H0.5V4.29386C0.5 3.72998 0.636717 3.17163 0.902344 2.65067C1.16797 2.12972 1.55731 1.65637 2.04812 1.25764C2.53894 0.858921 3.12162 0.542638 3.7629 0.326851C4.40418 0.111064 5.09151 0 5.78562 0H19.2144C20.6162 0 21.9606 0.452388 22.9519 1.25764C23.9431 2.0629 24.5 3.15506 24.5 4.29386V19.7061C24.5 20.8449 23.9431 21.9371 22.9519 22.7423C21.9606 23.5476 20.6162 24 19.2144 24H8.89297V20.1945ZM19.7999 6.29809H12.906C12.6989 6.29809 12.5003 6.36491 12.3539 6.48385C12.2075 6.6028 12.1252 6.76412 12.1252 6.93234C12.1252 7.10055 12.2075 7.26187 12.3539 7.38082C12.5003 7.49976 12.6989 7.56659 12.906 7.56659H19.7999C20.007 7.56659 20.2056 7.49976 20.352 7.38082C20.4984 7.26187 20.5807 7.10055 20.5807 6.93234C20.5807 6.76412 20.4984 6.6028 20.352 6.48385C20.2056 6.36491 20.007 6.29809 19.7999 6.29809ZM19.7999 10.63H8.77586C8.5688 10.63 8.37021 10.6968 8.22379 10.8158C8.07738 10.9347 7.99512 11.096 7.99512 11.2643C7.99512 11.4325 8.07738 11.5938 8.22379 11.7127C8.37021 11.8317 8.5688 11.8985 8.77586 11.8985H19.7999C20.007 11.8985 20.2056 11.8317 20.352 11.7127C20.4984 11.5938 20.5807 11.4325 20.5807 11.2643C20.5807 11.096 20.4984 10.9347 20.352 10.8158C20.2056 10.6968 20.007 10.63 19.7999 10.63ZM12.906 16.3826H19.7999C20.007 16.3826 20.2056 16.3158 20.352 16.1969C20.4984 16.0779 20.5807 15.9166 20.5807 15.7484C20.5807 15.5802 20.4984 15.4189 20.352 15.2999C20.2056 15.181 20.007 15.1141 19.7999 15.1141H12.906C12.6989 15.1141 12.5003 15.181 12.3539 15.2999C12.2075 15.4189 12.1252 15.5802 12.1252 15.7484C12.1252 15.9166 12.2075 16.0779 12.3539 16.1969C12.5003 16.3158 12.6989 16.3826 12.906 16.3826Z" fill="white"/>
<path d="M4.11489 17.7844C6.5508 17.7844 7.33154 18.3743 7.33154 20.1946V24.0001C5.82471 22.6047 4.27104 21.1777 0.515669 17.7844H4.11489Z" fill="white"/>
</svg>
