<svg width="32" height="22" viewBox="0 0 32 22" fill="none" xmlns="http://www.w3.org/2000/svg">
<path d="M29.6043 0H6.00622C4.54588 0 3.14535 0.572713 2.11273 1.59215C1.08012 2.61158 0.5 3.99423 0.5 5.43593V20.4469C0.5 20.8588 0.665748 21.2538 0.960781 21.5451C1.25581 21.8364 1.65596 22 2.0732 22H26.2376C26.9283 22.001 27.6124 21.8676 28.2509 21.6074C28.8893 21.3471 29.4694 20.9652 29.9582 20.4834C30.447 20.0016 30.8347 19.4294 31.0993 18.7995C31.3638 18.1696 31.5 17.4944 31.5 16.8126V1.87151C31.5 1.37516 31.3003 0.899131 30.9448 0.548154C30.5892 0.197177 30.1071 0 29.6043 0ZM28.5109 15.1274H24.0823L22.2653 17.0455C22.1754 17.1397 22.063 17.2101 21.9385 17.2505C21.814 17.2909 21.6812 17.2999 21.5523 17.2768C21.4233 17.2536 21.3023 17.1991 21.2001 17.118C21.098 17.0369 21.018 16.9319 20.9674 16.8126L17.2625 7.89763L13.4553 18.9093C13.4064 19.0539 13.3154 19.1811 13.1937 19.275C13.072 19.3689 12.925 19.4254 12.771 19.4373H12.7159C12.5715 19.4376 12.4298 19.3987 12.3063 19.3247C12.1828 19.2507 12.0823 19.1446 12.0159 19.018L8.19297 11.7338L6.61977 14.6848C6.55332 14.8114 6.45285 14.9175 6.32936 14.9915C6.20587 15.0654 6.06413 15.1044 5.91969 15.1041H3.38683C3.17821 15.1041 2.97814 15.0223 2.83062 14.8767C2.6831 14.731 2.60023 14.5335 2.60023 14.3276C2.60023 14.1216 2.6831 13.9241 2.83062 13.7785C2.97814 13.6328 3.17821 13.551 3.38683 13.551H5.43986L7.50076 9.66819C7.56827 9.54303 7.6692 9.4385 7.79261 9.36594C7.91602 9.29339 8.0572 9.25558 8.20084 9.25662C8.34528 9.25632 8.48702 9.29529 8.61051 9.36926C8.73399 9.44323 8.83447 9.54934 8.90091 9.67596L12.5665 16.665L16.4523 5.38157C16.5037 5.23105 16.6007 5.09971 16.7301 5.00529C16.8595 4.91086 17.0151 4.85789 17.176 4.85351C17.3353 4.8496 17.492 4.89353 17.6255 4.97951C17.7589 5.06549 17.8627 5.18945 17.9232 5.33498L21.9506 15.1041L23.1699 13.815C23.2439 13.7384 23.333 13.6775 23.4318 13.6361C23.5305 13.5947 23.6368 13.5736 23.7441 13.5743H28.5109C28.7195 13.5743 28.9196 13.6561 29.0671 13.8017C29.2146 13.9474 29.2975 14.1449 29.2975 14.3509C29.2975 14.5568 29.2146 14.7543 29.0671 14.9C28.9196 15.0456 28.7195 15.1274 28.5109 15.1274ZM28.9199 6.02612L28.857 6.08048C28.8407 6.1005 28.8222 6.11873 28.802 6.13484L26.8433 8.03741C26.1039 8.75962 26.0567 8.73632 25.7185 8.73632C25.3443 8.68736 25.0036 8.4983 24.7667 8.20826L22.635 6.12707C22.2369 5.71548 22.0147 5.16831 22.0145 4.5992C22.0144 4.0301 22.2363 3.48281 22.6342 3.07101C23.0321 2.65921 23.5753 2.41455 24.1512 2.38785C24.727 2.36115 25.2911 2.55447 25.7263 2.92764C25.9329 2.72113 26.1787 2.55682 26.4496 2.44408C26.7205 2.33134 27.0113 2.27239 27.3053 2.27058C27.5993 2.26878 27.8908 2.32417 28.1631 2.43357C28.4354 2.54298 28.6832 2.70426 28.8924 2.90822C29.1016 3.11218 29.268 3.35482 29.3822 3.62228C29.4964 3.88974 29.5561 4.17679 29.558 4.46703C29.5598 4.75728 29.5037 5.04504 29.3929 5.31388C29.282 5.58272 29.1187 5.82738 28.9121 6.03389L28.9199 6.02612Z" fill="#50BAF4"/>
</svg>
