<svg width="20" height="20" viewBox="0 0 20 20" fill="none" xmlns="http://www.w3.org/2000/svg">
<path d="M10 0C8.02219 0 6.08879 0.58649 4.4443 1.6853C2.79981 2.78412 1.51809 4.3459 0.761209 6.17317C0.00433284 8.00043 -0.193701 10.0111 0.192152 11.9509C0.578004 13.8907 1.53041 15.6725 2.92894 17.0711C4.32746 18.4696 6.10929 19.422 8.0491 19.8079C9.98891 20.1937 11.9996 19.9957 13.8268 19.2388C15.6541 18.4819 17.2159 17.2002 18.3147 15.5557C19.4135 13.9112 20 11.9778 20 10C20 8.68678 19.7413 7.38642 19.2388 6.17317C18.7363 4.95991 17.9997 3.85752 17.0711 2.92893C16.1425 2.00035 15.0401 1.26375 13.8268 0.761205C12.6136 0.258658 11.3132 0 10 0ZM14.29 13.46C14.2003 13.6074 14.0739 13.7291 13.9232 13.8132C13.7725 13.8973 13.6026 13.941 13.43 13.94C13.2505 13.9399 13.0744 13.8916 12.92 13.8L10.05 12.09C9.63901 11.8228 9.29823 11.4608 9.05633 11.0345C8.81444 10.6081 8.67851 10.1299 8.66 9.64V5.85C8.66 5.58478 8.76536 5.33043 8.9529 5.14289C9.14043 4.95536 9.39479 4.85 9.66 4.85C9.92522 4.85 10.1796 4.95536 10.3671 5.14289C10.5546 5.33043 10.66 5.58478 10.66 5.85V9.64C10.6764 9.78392 10.7222 9.92295 10.7944 10.0485C10.8666 10.1741 10.9638 10.2835 11.08 10.37L13.94 12.08C14.0543 12.147 14.1541 12.236 14.2337 12.3419C14.3132 12.4478 14.371 12.5684 14.4035 12.6968C14.4361 12.8252 14.4428 12.9588 14.4233 13.0898C14.4038 13.2208 14.3585 13.3466 14.29 13.46Z" fill="#D2D4E1"/>
</svg>
