<svg width="20" height="20" viewBox="0 0 20 20" fill="none" xmlns="http://www.w3.org/2000/svg">
<path d="M15.5799 0H4.41992C3.35906 0 2.34164 0.421427 1.59149 1.17157C0.841349 1.92172 0.419922 2.93913 0.419922 4V16C0.419922 17.0609 0.841349 18.0783 1.59149 18.8284C2.34164 19.5786 3.35906 20 4.41992 20H15.5799C16.6408 20 17.6582 19.5786 18.4083 18.8284C19.1585 18.0783 19.5799 17.0609 19.5799 16V4C19.5799 2.93913 19.1585 1.92172 18.4083 1.17157C17.6582 0.421427 16.6408 0 15.5799 0ZM14.6899 15.46H5.30992C5.04471 15.46 4.79035 15.3546 4.60282 15.1671C4.41528 14.9796 4.30992 14.7252 4.30992 14.46C4.30992 14.1948 4.41528 13.9404 4.60282 13.7529C4.79035 13.5654 5.04471 13.46 5.30992 13.46H14.6899C14.9551 13.46 15.2095 13.5654 15.397 13.7529C15.5846 13.9404 15.6899 14.1948 15.6899 14.46C15.6899 14.7252 15.5846 14.9796 15.397 15.1671C15.2095 15.3546 14.9551 15.46 14.6899 15.46ZM14.6899 10.79H5.30992C5.04471 10.79 4.79035 10.6846 4.60282 10.4971C4.41528 10.3096 4.30992 10.0552 4.30992 9.79C4.30992 9.52478 4.41528 9.27043 4.60282 9.08289C4.79035 8.89536 5.04471 8.79 5.30992 8.79H14.6899C14.9551 8.79 15.2095 8.89536 15.397 9.08289C15.5846 9.27043 15.6899 9.52478 15.6899 9.79C15.6899 10.0552 15.5846 10.3096 15.397 10.4971C15.2095 10.6846 14.9551 10.79 14.6899 10.79ZM14.6899 6.5H5.30992C5.04471 6.5 4.79035 6.39464 4.60282 6.20711C4.41528 6.01957 4.30992 5.76522 4.30992 5.5C4.30992 5.23478 4.41528 4.98043 4.60282 4.79289C4.79035 4.60536 5.04471 4.5 5.30992 4.5H14.6899C14.9551 4.5 15.2095 4.60536 15.397 4.79289C15.5846 4.98043 15.6899 5.23478 15.6899 5.5C15.6899 5.76522 15.5846 6.01957 15.397 6.20711C15.2095 6.39464 14.9551 6.5 14.6899 6.5Z" fill="#D2D4E1"/>
</svg>
