<svg width="24" height="24" viewBox="0 0 24 24" fill="none" xmlns="http://www.w3.org/2000/svg">
<path d="M21 13V17C21 18.0609 20.5786 19.0783 19.8284 19.8284C19.0783 20.5786 18.0609 21 17 21H7C5.93913 21 4.92172 20.5786 4.17157 19.8284C3.42143 19.0783 3 18.0609 3 17V7C3 5.93913 3.42143 4.92172 4.17157 4.17157C4.92172 3.42143 5.93913 3 7 3H11" stroke="white" stroke-width="2" stroke-miterlimit="10" stroke-linecap="round"/>
<path d="M15.3398 4.16L8.15982 11.34C7.85547 11.6787 7.64818 12.0933 7.55982 12.54L7.16982 15.28C7.12265 15.4933 7.13001 15.7151 7.1912 15.9248C7.25239 16.1345 7.36545 16.3254 7.51992 16.4799C7.6744 16.6344 7.86531 16.7474 8.07503 16.8086C8.28475 16.8698 8.50651 16.8772 8.71982 16.83L11.4598 16.44C11.9065 16.3516 12.3211 16.1443 12.6598 15.84L19.8398 8.66C21.0798 7.42 21.6598 5.98 19.8398 4.16C17.9998 2.34 16.5798 2.92 15.3398 4.16Z" stroke="white" stroke-width="2" stroke-linecap="round" stroke-linejoin="round"/>
<path d="M14.3101 5.19C14.6141 6.26161 15.1871 7.23765 15.9748 8.02529C16.7624 8.81294 17.7384 9.386 18.8101 9.69V9.69" stroke="white" stroke-width="2" stroke-linecap="round" stroke-linejoin="round"/>
</svg>
