<svg width="28" height="28" viewBox="0 0 28 28" fill="none" xmlns="http://www.w3.org/2000/svg">
<path d="M2.24764 25.2992C1.52574 24.5642 0.955709 23.6943 0.57011 22.739C0.18451 21.7837 -0.00910359 20.7617 0.000328769 19.7316C0.00976112 18.7015 0.222055 17.6833 0.625082 16.7352C1.02811 15.7871 1.61398 14.9277 2.34921 14.2061L8.02273 8.61237L19.007 19.8143L13.3335 25.379C12.6006 26.1021 11.7324 26.6737 10.7784 27.061C9.8245 27.4484 8.80358 27.6439 7.77403 27.6365C6.74448 27.6291 5.72649 27.4189 4.77824 27.0178C3.82998 26.6168 2.97007 26.0328 2.24764 25.2992Z" fill="#52CCBD"/>
<path d="M25.667 13.2702C27.0779 11.7983 27.8602 9.83483 27.8481 7.79594C27.8359 5.75704 27.0301 3.80304 25.6017 2.34815C24.1732 0.893262 22.2343 0.0518621 20.196 0.00231826C18.1576 -0.0472256 16.1801 0.698981 14.6827 2.08275L9.04541 7.63294L20.0297 18.8276L25.667 13.2702ZM20.5883 3.22181C19.8601 3.11041 19.1159 3.17116 18.4154 3.3992C17.7149 3.62725 17.0776 4.01624 16.5545 4.53499L14.3779 6.71154C14.3098 6.77823 14.2292 6.83085 14.1408 6.8664C14.0523 6.90195 13.9577 6.91972 13.8624 6.91871C13.7671 6.9177 13.6729 6.89792 13.5852 6.86051C13.4975 6.82309 13.418 6.76877 13.3513 6.70065C13.2846 6.63253 13.232 6.55194 13.1965 6.46348C13.1609 6.37502 13.1432 6.28043 13.1442 6.1851C13.1452 6.08977 13.165 5.99557 13.2024 5.90789C13.2398 5.8202 13.2941 5.74074 13.3622 5.67405L15.5388 3.49751C16.2234 2.81604 17.0593 2.3058 17.9783 2.00827C18.8973 1.71075 19.8736 1.63435 20.8278 1.78529C21.0202 1.81319 21.1936 1.91639 21.31 2.07218C21.4263 2.22797 21.476 2.42359 21.4481 2.61601C21.4202 2.80842 21.317 2.98188 21.1612 3.09821C21.0054 3.21454 20.8098 3.26422 20.6174 3.23632L20.5883 3.22181Z" fill="#52CCBD"/>
</svg>
