<svg width="55" height="54" viewBox="0 0 55 54" fill="none" xmlns="http://www.w3.org/2000/svg">
<rect x="0.146362" width="54" height="54" rx="27" fill="#A293FA"/>
<path d="M24.3438 34.1702C24.3438 31.978 23.0185 30.9514 20.163 30.9514H17V20.2571C17 19.7637 17.1196 19.2752 17.3521 18.8193C17.5845 18.3635 17.9251 17.9493 18.3546 17.6004C18.7841 17.2516 19.2939 16.9748 19.855 16.786C20.4162 16.5972 21.0176 16.5 21.6249 16.5H33.3751C34.6017 16.5 35.7781 16.8958 36.6454 17.6004C37.5127 18.305 38 19.2607 38 20.2571V33.7428C38 34.7393 37.5127 35.6949 36.6454 36.3995C35.7781 37.1041 34.6017 37.5 33.3751 37.5H24.3438V34.1702ZM33.8874 22.0108H27.8552C27.6741 22.0108 27.5003 22.0693 27.3722 22.1734C27.2441 22.2774 27.1721 22.4186 27.1721 22.5658C27.1721 22.713 27.2441 22.8541 27.3722 22.9582C27.5003 23.0623 27.6741 23.1208 27.8552 23.1208H33.8874C34.0686 23.1208 34.2424 23.0623 34.3705 22.9582C34.4986 22.8541 34.5706 22.713 34.5706 22.5658C34.5706 22.4186 34.4986 22.2774 34.3705 22.1734C34.2424 22.0693 34.0686 22.0108 33.8874 22.0108ZM33.8874 25.8013H24.2414C24.0602 25.8013 23.8864 25.8597 23.7583 25.9638C23.6302 26.0679 23.5582 26.209 23.5582 26.3562C23.5582 26.5034 23.6302 26.6446 23.7583 26.7486C23.8864 26.8527 24.0602 26.9112 24.2414 26.9112H33.8874C34.0686 26.9112 34.2424 26.8527 34.3705 26.7486C34.4986 26.6446 34.5706 26.5034 34.5706 26.3562C34.5706 26.209 34.4986 26.0679 34.3705 25.9638C34.2424 25.8597 34.0686 25.8013 33.8874 25.8013ZM27.8552 30.8348H33.8874C34.0686 30.8348 34.2424 30.7763 34.3705 30.6723C34.4986 30.5682 34.5706 30.427 34.5706 30.2798C34.5706 30.1327 34.4986 29.9915 34.3705 29.8874C34.2424 29.7833 34.0686 29.7249 33.8874 29.7249H27.8552C27.6741 29.7249 27.5003 29.7833 27.3722 29.8874C27.2441 29.9915 27.1721 30.1327 27.1721 30.2798C27.1721 30.427 27.2441 30.5682 27.3722 30.6723C27.5003 30.7763 27.6741 30.8348 27.8552 30.8348Z" fill="white"/>
<path d="M20.163 32.0614C22.2945 32.0614 22.9776 32.5775 22.9776 34.1703V37.5001C21.6591 36.2792 20.2997 35.0305 17.0137 32.0614H20.163Z" fill="white"/>
</svg>
