<svg width="55" height="54" viewBox="0 0 55 54" fill="none" xmlns="http://www.w3.org/2000/svg">
<rect x="0.146332" width="54" height="54" rx="27" fill="#F96363"/>
<path d="M33.7222 16.1667H20.6463C19.5198 16.1492 18.432 16.5779 17.6203 17.3592C16.8085 18.1405 16.3386 19.2111 16.313 20.3375V33.6733C16.355 34.7558 16.8009 35.7833 17.5629 36.5533C18.3249 37.3233 19.3477 37.78 20.4297 37.8333H33.8413C34.9416 37.784 35.9819 37.3174 36.7506 36.5286C37.5193 35.7398 37.9587 34.6879 37.9797 33.5867V20.5867C37.9911 20.0167 37.89 19.45 37.6822 18.9192C37.4743 18.3883 37.1637 17.9037 36.7682 17.4931C36.3727 17.0825 35.9 16.754 35.3773 16.5264C34.8546 16.2988 34.2922 16.1765 33.7222 16.1667ZM30.7863 28.4408L28.6197 29.6758L26.453 30.9217C25.0772 31.7125 23.9613 31.0625 23.9613 29.4808V24.5192C23.9613 22.9375 25.0447 22.2875 26.453 23.0783L28.6197 24.3242L30.7863 25.5592C31.0898 25.6589 31.354 25.8519 31.5413 26.1106C31.7286 26.3693 31.8294 26.6806 31.8294 27C31.8294 27.3194 31.7286 27.6306 31.5413 27.8894C31.354 28.1481 31.0898 28.3411 30.7863 28.4408Z" fill="white"/>
</svg>
