<svg width="18" height="20" viewBox="0 0 18 20" fill="none" xmlns="http://www.w3.org/2000/svg">
<path d="M16.47 3.88L10.57 0.469997C10.0927 0.194404 9.55122 0.0493164 9.00003 0.0493164C8.44885 0.0493164 7.90737 0.194404 7.43003 0.469997L1.53003 3.88C1.0615 4.15981 0.673979 4.5569 0.405681 5.03212C0.137384 5.50734 -0.0024275 6.04428 3.1895e-05 6.59V13.41C0.00166457 13.9596 0.147526 14.4991 0.423037 14.9747C0.698548 15.4503 1.09406 15.8452 1.57003 16.12L7.47003 19.53C7.94737 19.8056 8.48885 19.9507 9.04003 19.9507C9.59122 19.9507 10.1327 19.8056 10.61 19.53L16.51 16.12C16.9711 15.8353 17.3507 15.436 17.6118 14.9612C17.8729 14.4863 18.0066 13.9519 18 13.41V6.59C18.0025 6.04428 17.8627 5.50734 17.5944 5.03212C17.3261 4.5569 16.9386 4.15981 16.47 3.88ZM12.47 11.69C12.6687 11.8652 12.7898 12.112 12.8067 12.3764C12.8235 12.6407 12.7348 12.901 12.56 13.1C12.4663 13.2067 12.351 13.2922 12.2217 13.3508C12.0923 13.4094 11.952 13.4398 11.81 13.44C11.567 13.4396 11.3323 13.3508 11.15 13.19L9.00003 11.33L6.90003 13.19C6.71773 13.3508 6.4831 13.4396 6.24003 13.44C6.09805 13.4398 5.95773 13.4094 5.82841 13.3508C5.69909 13.2922 5.58374 13.2067 5.49003 13.1C5.31523 12.901 5.22653 12.6407 5.2434 12.3764C5.26028 12.112 5.38134 11.8652 5.58003 11.69L7.49003 10L5.58003 8.31C5.38134 8.13482 5.26028 7.88796 5.2434 7.62361C5.22653 7.35926 5.31523 7.09902 5.49003 6.9C5.66521 6.70131 5.91207 6.58024 6.17642 6.56337C6.44077 6.54649 6.70101 6.63519 6.90003 6.81L9.00003 8.67L11.1 6.81C11.2991 6.63519 11.5593 6.54649 11.8236 6.56337C12.088 6.58024 12.3349 6.70131 12.51 6.9C12.6848 7.09902 12.7735 7.35926 12.7567 7.62361C12.7398 7.88796 12.6187 8.13482 12.42 8.31L10.51 10L12.47 11.69Z" fill="#D2D4E1"/>
</svg>
