<svg width="18" height="21" viewBox="0 0 18 21" fill="none" xmlns="http://www.w3.org/2000/svg">
<path d="M16.8596 7.15C16.4659 5.37247 15.4666 3.78706 14.0327 2.66515C12.5989 1.54324 10.8196 0.954603 8.99959 1C7.18734 0.955986 5.41546 1.53895 3.98336 2.65037C2.55126 3.7618 1.54676 5.33354 1.13959 7.1C0.0695899 11.85 2.99959 15.83 5.54959 18.34C6.51959 19.27 8.20959 21 8.99959 21C9.78959 21 11.4796 19.31 12.4396 18.38C15.0496 15.83 17.9296 11.86 16.8596 7.15ZM8.99959 11.09C8.42913 11.092 7.87094 10.9245 7.3958 10.6088C6.92065 10.2931 6.54997 9.84341 6.33075 9.31676C6.11153 8.7901 6.05365 8.2102 6.16446 7.65061C6.27527 7.09101 6.54976 6.57693 6.95314 6.17355C7.35652 5.77017 7.8706 5.49568 8.43019 5.38487C8.98979 5.27407 9.56969 5.33194 10.0963 5.55116C10.623 5.77038 11.0727 6.14106 11.3884 6.61621C11.7041 7.09135 11.8716 7.64954 11.8696 8.22C11.867 8.98036 11.5637 9.70883 11.0261 10.2465C10.4884 10.7841 9.75995 11.0874 8.99959 11.09Z" fill="#D2D4E1"/>
</svg>
