<svg width="20" height="20" viewBox="0 0 20 20" fill="none" xmlns="http://www.w3.org/2000/svg">
<path d="M5.69995 4.32995C5.43473 4.32995 5.18038 4.22459 4.99284 4.03706C4.80531 3.84952 4.69995 3.59517 4.69995 3.32995V1.19995C4.69995 1.06863 4.72582 0.938593 4.77607 0.817268C4.82633 0.695942 4.89999 0.585703 4.99284 0.492844C5.0857 0.399986 5.19594 0.326326 5.31727 0.276072C5.43859 0.225817 5.56863 0.199951 5.69995 0.199951C5.83127 0.199951 5.96131 0.225817 6.08263 0.276072C6.20396 0.326326 6.3142 0.399986 6.40706 0.492844C6.49992 0.585703 6.57358 0.695942 6.62383 0.817268C6.67409 0.938593 6.69995 1.06863 6.69995 1.19995V3.32995C6.69995 3.59517 6.59459 3.84952 6.40706 4.03706C6.21952 4.22459 5.96517 4.32995 5.69995 4.32995Z" fill="#D2D4E1"/>
<path d="M14.25 4.32995C13.9848 4.32995 13.7304 4.22459 13.5429 4.03706C13.3554 3.84952 13.25 3.59517 13.25 3.32995V1.19995C13.25 0.934735 13.3554 0.680381 13.5429 0.492844C13.7304 0.305308 13.9848 0.199951 14.25 0.199951C14.5152 0.199951 14.7696 0.305308 14.9571 0.492844C15.1446 0.680381 15.25 0.934735 15.25 1.19995V3.32995C15.25 3.59517 15.1446 3.84952 14.9571 4.03706C14.7696 4.22459 14.5152 4.32995 14.25 4.32995Z" fill="#D2D4E1"/>
<path d="M19.92 5.63986C19.8197 4.66522 19.3651 3.76129 18.6426 3.09956C17.92 2.43782 16.9797 2.06431 16 2.04986H4C3.00649 2.04463 2.04659 2.40932 1.30719 3.07293C0.567795 3.73654 0.101822 4.65157 0 5.63986H19.92Z" fill="#D2D4E1"/>
<path d="M0 7.63989V15.6399C0 16.7008 0.421427 17.7182 1.17157 18.4683C1.92172 19.2185 2.93913 19.6399 4 19.6399H16C17.0609 19.6399 18.0783 19.2185 18.8284 18.4683C19.5786 17.7182 20 16.7008 20 15.6399V7.63989H0ZM6.7 13.6399C6.48837 13.6399 6.2815 13.5771 6.10554 13.4596C5.92958 13.342 5.79243 13.1749 5.71145 12.9794C5.63046 12.7838 5.60927 12.5687 5.65056 12.3611C5.69185 12.1536 5.79375 11.9629 5.9434 11.8133C6.09304 11.6636 6.28369 11.5617 6.49125 11.5205C6.69881 11.4792 6.91395 11.5004 7.10947 11.5813C7.30499 11.6623 7.4721 11.7995 7.58967 11.9754C7.70725 12.1514 7.77 12.3583 7.77 12.5699C7.77 12.8537 7.65727 13.1258 7.4566 13.3265C7.25594 13.5272 6.98378 13.6399 6.7 13.6399ZM10.25 13.6399C10.038 13.6419 9.83011 13.5808 9.65284 13.4644C9.47557 13.3481 9.33687 13.1817 9.25435 12.9863C9.17183 12.791 9.14921 12.5756 9.18935 12.3673C9.2295 12.1591 9.33062 11.9675 9.47985 11.8169C9.62909 11.6663 9.81972 11.5633 10.0275 11.5212C10.2354 11.4791 10.451 11.4997 10.6471 11.5804C10.8432 11.6611 11.0109 11.7982 11.129 11.9744C11.247 12.1506 11.31 12.3578 11.31 12.5699C11.3113 12.7099 11.2849 12.8488 11.2322 12.9786C11.1795 13.1084 11.1017 13.2264 11.0031 13.3259C10.9045 13.4254 10.7872 13.5044 10.658 13.5583C10.5287 13.6122 10.39 13.6399 10.25 13.6399ZM13.79 13.6399C13.5784 13.6399 13.3715 13.5771 13.1955 13.4596C13.0196 13.342 12.8824 13.1749 12.8014 12.9794C12.7205 12.7838 12.6993 12.5687 12.7406 12.3611C12.7818 12.1536 12.8838 11.9629 13.0334 11.8133C13.183 11.6636 13.3737 11.5617 13.5813 11.5205C13.7888 11.4792 14.004 11.5004 14.1995 11.5813C14.395 11.6623 14.5621 11.7995 14.6797 11.9754C14.7972 12.1514 14.86 12.3583 14.86 12.5699C14.86 12.8537 14.7473 13.1258 14.5466 13.3265C14.3459 13.5272 14.0738 13.6399 13.79 13.6399Z" fill="#D2D4E1"/>
</svg>
