<svg width="20" height="20" viewBox="0 0 20 20" fill="none" xmlns="http://www.w3.org/2000/svg">
<path d="M18.2 5.06001L12 0.730008C11.2486 0.251884 10.3721 0.00800135 9.48174 0.0293692C8.59142 0.0507371 7.72756 0.33639 7 0.850008L1.63 5.05001C1.15053 5.46665 0.7593 5.97504 0.479359 6.54522C0.199419 7.11541 0.0364313 7.73585 0 8.37001V15.78C0.00262744 16.8967 0.446707 17.967 1.23538 18.7576C2.02405 19.5481 3.09333 19.9947 4.21 20H15.79C16.9058 19.9974 17.975 19.553 18.764 18.764C19.553 17.9751 19.9974 16.9058 20 15.79V8.51001C19.9624 7.84005 19.7825 7.18579 19.4721 6.59088C19.1617 5.99597 18.728 5.47408 18.2 5.06001ZM11 16.17C11 16.4352 10.8946 16.6896 10.7071 16.8771C10.5196 17.0647 10.2652 17.17 10 17.17C9.73478 17.17 9.48043 17.0647 9.29289 16.8771C9.10536 16.6896 9 16.4352 9 16.17V13.08C9 12.8148 9.10536 12.5604 9.29289 12.3729C9.48043 12.1854 9.73478 12.08 10 12.08C10.2652 12.08 10.5196 12.1854 10.7071 12.3729C10.8946 12.5604 11 12.8148 11 13.08V16.17Z" fill="#D2D4E1"/>
</svg>
