<svg width="20" height="21" viewBox="0 0 20 21" fill="none" xmlns="http://www.w3.org/2000/svg">
<path d="M17.47 4.25H2.53998C1.2642 4.25 0.22998 5.28422 0.22998 6.56V7.44C0.22998 8.71578 1.2642 9.75 2.53998 9.75H17.47C18.7458 9.75 19.78 8.71578 19.78 7.44V6.56C19.78 5.28422 18.7458 4.25 17.47 4.25Z" fill="#D2D4E1"/>
<path d="M17.72 11.73C17.5237 11.5029 17.2812 11.3204 17.0087 11.1945C16.7363 11.0686 16.4401 11.0023 16.14 11H3.70996C3.44188 10.9997 3.17693 11.0577 2.93347 11.1699C2.69001 11.2822 2.47385 11.446 2.29996 11.65C2.13045 11.8512 2.00685 12.087 1.93777 12.3409C1.86869 12.5947 1.85579 12.8606 1.89996 13.12L2.59996 17.12C2.79996 18.38 3.22996 21 6.93996 21H12.79C16.15 21 16.96 19.21 17.33 17.27L18.09 13.14C18.136 12.8922 18.1267 12.6374 18.0627 12.3936C17.9988 12.1498 17.8817 11.9232 17.72 11.73ZM8.99996 16.73C8.99996 16.9952 8.8946 17.2496 8.70707 17.4371C8.51953 17.6246 8.26518 17.73 7.99996 17.73C7.73475 17.73 7.48039 17.6246 7.29286 17.4371C7.10532 17.2496 6.99996 16.9952 6.99996 16.73V14.73C6.99996 14.4648 7.10532 14.2104 7.29286 14.0229C7.48039 13.8354 7.73475 13.73 7.99996 13.73C8.26518 13.73 8.51953 13.8354 8.70707 14.0229C8.8946 14.2104 8.99996 14.4648 8.99996 14.73V16.73ZM13.25 16.73C13.25 16.9952 13.1446 17.2496 12.9571 17.4371C12.7695 17.6246 12.5152 17.73 12.25 17.73C11.9847 17.73 11.7304 17.6246 11.5429 17.4371C11.3553 17.2496 11.25 16.9952 11.25 16.73V14.73C11.25 14.4648 11.3553 14.2104 11.5429 14.0229C11.7304 13.8354 11.9847 13.73 12.25 13.73C12.5152 13.73 12.7695 13.8354 12.9571 14.0229C13.1446 14.2104 13.25 14.4648 13.25 14.73V16.73Z" fill="#D2D4E1"/>
<path d="M3.99998 5.99989C3.74956 5.99709 3.50839 5.90487 3.31998 5.73989C3.22222 5.65095 3.14306 5.54351 3.08708 5.4238C3.03109 5.30408 2.99939 5.17445 2.99381 5.0424C2.98823 4.91035 3.00888 4.77851 3.05457 4.6545C3.10026 4.53048 3.17007 4.41675 3.25998 4.31989L5.99998 1.31989C6.08928 1.22205 6.19698 1.14276 6.31692 1.08655C6.43686 1.03033 6.5667 0.998294 6.69902 0.992259C6.83135 0.986223 6.96356 1.00631 7.08812 1.05137C7.21268 1.09643 7.32715 1.16559 7.42498 1.25489C7.52282 1.34418 7.60211 1.45188 7.65832 1.57182C7.71454 1.69176 7.74658 1.8216 7.75261 1.95392C7.75865 2.08625 7.73856 2.21846 7.6935 2.34302C7.64844 2.46759 7.57928 2.58205 7.48998 2.67989L4.73998 5.67989C4.6456 5.78166 4.53106 5.86267 4.40366 5.91777C4.27626 5.97286 4.13878 6.00083 3.99998 5.99989Z" fill="#D2D4E1"/>
<path d="M16 5.99989C15.8612 6.00083 15.7237 5.97286 15.5963 5.91777C15.4689 5.86267 15.3544 5.78166 15.26 5.67989L12.51 2.67989C12.3297 2.4823 12.2352 2.22116 12.2474 1.95392C12.2596 1.68669 12.3774 1.43523 12.575 1.25489C12.7726 1.07454 13.0337 0.98007 13.301 0.99226C13.5682 1.00445 13.8197 1.1223 14 1.31989L16.75 4.31989C16.8399 4.41675 16.9097 4.53048 16.9554 4.6545C17.0011 4.77851 17.0218 4.91036 17.0162 5.0424C17.0106 5.17445 16.9789 5.30408 16.9229 5.4238C16.8669 5.54352 16.7878 5.65095 16.69 5.73989C16.499 5.90712 16.2539 5.99948 16 5.99989Z" fill="#D2D4E1"/>
</svg>
