<svg width="20" height="20" viewBox="0 0 20 20" fill="none" xmlns="http://www.w3.org/2000/svg">
<path d="M14 8.25C13.276 8.25 12.5816 7.96238 12.0696 7.4504C11.5576 6.93843 11.27 6.24404 11.27 5.52V0H4.52002C3.45915 0 2.44174 0.421427 1.69159 1.17157C0.941447 1.92172 0.52002 2.93913 0.52002 4V16C0.52002 17.0609 0.941447 18.0783 1.69159 18.8284C2.44174 19.5786 3.45915 20 4.52002 20H15.52C16.5809 20 17.5983 19.5786 18.3484 18.8284C19.0986 18.0783 19.52 17.0609 19.52 16V8.25H14ZM9.75002 16H5.75002C5.4848 16 5.23045 15.8946 5.04291 15.7071C4.85538 15.5196 4.75002 15.2652 4.75002 15C4.75002 14.7348 4.85538 14.4804 5.04291 14.2929C5.23045 14.1054 5.4848 14 5.75002 14H9.75002C10.0152 14 10.2696 14.1054 10.4571 14.2929C10.6447 14.4804 10.75 14.7348 10.75 15C10.75 15.2652 10.6447 15.5196 10.4571 15.7071C10.2696 15.8946 10.0152 16 9.75002 16ZM11.5 12H5.75002C5.4848 12 5.23045 11.8946 5.04291 11.7071C4.85538 11.5196 4.75002 11.2652 4.75002 11C4.75002 10.7348 4.85538 10.4804 5.04291 10.2929C5.23045 10.1054 5.4848 10 5.75002 10H11.5C11.7652 10 12.0196 10.1054 12.2071 10.2929C12.3947 10.4804 12.5 10.7348 12.5 11C12.5 11.2652 12.3947 11.5196 12.2071 11.7071C12.0196 11.8946 11.7652 12 11.5 12Z" fill="#D2D4E1"/>
<path d="M13.25 5.52C13.25 5.71361 13.3269 5.89929 13.4638 6.03619C13.6007 6.17309 13.7864 6.25 13.98 6.25H19.49C19.4767 5.91678 19.3415 5.60004 19.11 5.36L14.11 0.36C13.8772 0.1386 13.5711 0.0104801 13.25 0V5.52Z" fill="#D2D4E1"/>
</svg>
