<svg width="24" height="24" viewBox="0 0 24 24" fill="none" xmlns="http://www.w3.org/2000/svg">
<path d="M17 2H7C5.93913 2 4.92172 2.42143 4.17157 3.17157C3.42143 3.92172 3 4.93913 3 6V18C3 19.0609 3.42143 20.0783 4.17157 20.8284C4.92172 21.5786 5.93913 22 7 22H17C18.0609 22 19.0783 21.5786 19.8284 20.8284C20.5786 20.0783 21 19.0609 21 18V6C21 4.93913 20.5786 3.92172 19.8284 3.17157C19.0783 2.42143 18.0609 2 17 2ZM8.5 7.5H12C12.2652 7.5 12.5196 7.60536 12.7071 7.79289C12.8946 7.98043 13 8.23478 13 8.5C13 8.76522 12.8946 9.01957 12.7071 9.20711C12.5196 9.39464 12.2652 9.5 12 9.5H8.5C8.23478 9.5 7.98043 9.39464 7.79289 9.20711C7.60536 9.01957 7.5 8.76522 7.5 8.5C7.5 8.23478 7.60536 7.98043 7.79289 7.79289C7.98043 7.60536 8.23478 7.5 8.5 7.5ZM15.5 16.9H8.5C8.23478 16.9 7.98043 16.7946 7.79289 16.6071C7.60536 16.4196 7.5 16.1652 7.5 15.9C7.5 15.6348 7.60536 15.3804 7.79289 15.1929C7.98043 15.0054 8.23478 14.9 8.5 14.9H15.5C15.7652 14.9 16.0196 15.0054 16.2071 15.1929C16.3946 15.3804 16.5 15.6348 16.5 15.9C16.5 16.1652 16.3946 16.4196 16.2071 16.6071C16.0196 16.7946 15.7652 16.9 15.5 16.9ZM15.5 13.2H8.5C8.23478 13.2 7.98043 13.0946 7.79289 12.9071C7.60536 12.7196 7.5 12.4652 7.5 12.2C7.5 11.9348 7.60536 11.6804 7.79289 11.4929C7.98043 11.3054 8.23478 11.2 8.5 11.2H15.5C15.7652 11.2 16.0196 11.3054 16.2071 11.4929C16.3946 11.6804 16.5 11.9348 16.5 12.2C16.5 12.4652 16.3946 12.7196 16.2071 12.9071C16.0196 13.0946 15.7652 13.2 15.5 13.2Z" fill="#2795A0"/>
</svg>
