<svg width="24" height="24" viewBox="0 0 24 24" fill="none" xmlns="http://www.w3.org/2000/svg">
<path d="M19.47 5.88L13.57 2.47C13.0927 2.1944 12.5512 2.04932 12 2.04932C11.4488 2.04932 10.9074 2.1944 10.43 2.47L4.53003 5.88C4.0615 6.15981 3.67398 6.5569 3.40568 7.03212C3.13738 7.50734 2.99757 8.04428 3.00003 8.59V15.41C3.00166 15.9596 3.14753 16.4991 3.42304 16.9747C3.69855 17.4503 4.09406 17.8452 4.57003 18.12L10.47 21.53C10.9474 21.8056 11.4888 21.9507 12.04 21.9507C12.5912 21.9507 13.1327 21.8056 13.61 21.53L19.51 18.12C19.9711 17.8353 20.3507 17.436 20.6118 16.9612C20.8729 16.4863 21.0066 15.9519 21 15.41V8.59C21.0025 8.04428 20.8627 7.50734 20.5944 7.03212C20.3261 6.5569 19.9386 6.15981 19.47 5.88ZM11 7.8C11 7.53478 11.1054 7.28043 11.2929 7.09289C11.4805 6.90535 11.7348 6.8 12 6.8C12.2652 6.8 12.5196 6.90535 12.7071 7.09289C12.8947 7.28043 13 7.53478 13 7.8V12.61C13 12.8752 12.8947 13.1296 12.7071 13.3171C12.5196 13.5046 12.2652 13.61 12 13.61C11.7348 13.61 11.4805 13.5046 11.2929 13.3171C11.1054 13.1296 11 12.8752 11 12.61V7.8ZM12 17.6C11.7757 17.602 11.5559 17.5371 11.3685 17.4137C11.1812 17.2903 11.0348 17.114 10.948 16.9071C10.8612 16.7002 10.838 16.4722 10.8813 16.252C10.9246 16.0319 11.0324 15.8296 11.191 15.671C11.3497 15.5124 11.5519 15.4046 11.7721 15.3613C11.9922 15.318 12.2202 15.3412 12.4271 15.428C12.634 15.5147 12.8104 15.6611 12.9338 15.8485C13.0572 16.0358 13.122 16.2557 13.12 16.48C13.12 16.6271 13.0911 16.7727 13.0348 16.9086C12.9785 17.0445 12.896 17.168 12.792 17.272C12.688 17.376 12.5645 17.4585 12.4286 17.5147C12.2928 17.571 12.1471 17.6 12 17.6Z" fill="#2795A0"/>
</svg>
