<svg width="24" height="24" viewBox="0 0 24 24" fill="none" xmlns="http://www.w3.org/2000/svg">
<path d="M12.29 2C11.0671 2.03849 9.90621 2.54739 9.04923 3.42065C8.19226 4.29391 7.7053 5.46417 7.68983 6.68759C7.67436 7.91101 8.13157 9.09321 8.96619 9.98786C9.80081 10.8825 10.9485 11.4206 12.17 11.49H12.46C13.6828 11.4163 14.8299 10.8731 15.6617 9.97371C16.4935 9.07433 16.9456 7.88836 16.9237 6.66352C16.9017 5.43867 16.4074 4.26966 15.5439 3.40064C14.6805 2.53163 13.5147 2.02981 12.29 2Z" fill="#D2D4E1"/>
<path d="M17.36 14.1499C15.8245 13.237 14.0713 12.7551 12.285 12.7551C10.4986 12.7551 8.74537 13.237 7.20996 14.1499C6.63136 14.4761 6.14461 14.9433 5.79494 15.508C5.44528 16.0727 5.24405 16.7166 5.20996 17.3799C5.24367 18.0407 5.44493 18.6821 5.79481 19.2436C6.14469 19.8052 6.63168 20.2685 7.20996 20.5899C8.73043 21.5433 10.4956 22.0333 12.29 21.9999C14.081 22.0319 15.8426 21.542 17.36 20.5899C17.939 20.2669 18.4264 19.8018 18.7763 19.2385C19.1261 18.6752 19.327 18.0322 19.36 17.3699C19.3261 16.7079 19.1248 16.0653 18.775 15.5021C18.4253 14.939 17.9384 14.4738 17.36 14.1499Z" fill="#D2D4E1"/>
</svg>
