<svg width="24" height="24" viewBox="0 0 24 24" fill="none" xmlns="http://www.w3.org/2000/svg">
<path d="M21 13V17C21 18.0609 20.5786 19.0783 19.8284 19.8284C19.0783 20.5786 18.0609 21 17 21H7C5.93913 21 4.92172 20.5786 4.17157 19.8284C3.42143 19.0783 3 18.0609 3 17V7C3 5.93913 3.42143 4.92172 4.17157 4.17157C4.92172 3.42143 5.93913 3 7 3H11" stroke="white" stroke-width="2" stroke-miterlimit="10" stroke-linecap="round"/>
<path d="M15.3399 4.16001L8.15994 11.34C7.85559 11.6787 7.6483 12.0933 7.55994 12.54L7.16994 15.28C7.12278 15.4933 7.13013 15.7151 7.19132 15.9248C7.25251 16.1345 7.36557 16.3254 7.52004 16.4799C7.67452 16.6344 7.86544 16.7474 8.07515 16.8086C8.28487 16.8698 8.50663 16.8772 8.71994 16.83L11.4599 16.44C11.9066 16.3516 12.3212 16.1444 12.6599 15.84L19.8399 8.66001C21.0799 7.42001 21.6599 5.98001 19.8399 4.16001C17.9999 2.34001 16.5799 2.92001 15.3399 4.16001Z" stroke="white" stroke-width="2" stroke-linecap="round" stroke-linejoin="round"/>
<path d="M14.3101 5.19C14.6141 6.26162 15.1871 7.23765 15.9748 8.02529C16.7624 8.81294 17.7384 9.38601 18.8101 9.69V9.69" stroke="white" stroke-width="2" stroke-linecap="round" stroke-linejoin="round"/>
</svg>
