<svg xmlns="http://www.w3.org/2000/svg" width="20.815" height="16.262" viewBox="0 0 20.815 16.262"><path d="M16.258,10.4l-.524,6.4a1.236,1.236,0,0,1-2.464-.2l.407-4.98-1.671.094a6.328,6.328,0,0,1-1.077,7.115l-1.6-1.6A4.064,4.064,0,0,0,3.59,11.485l-1.6-1.6A6.306,6.306,0,0,1,5.3,8.253L8.363,4.769,6.631,3.761l-2.1,1.87A1.237,1.237,0,0,1,2.887,3.785L5.651,1.317a1.232,1.232,0,0,1,1.443-.146s5.663,3.289,5.671,3.3a1.45,1.45,0,0,1,.248,2.138l-2.374,2.7,4.314-.24A1.234,1.234,0,0,1,16.258,10.4ZM13.619,4.139A2.069,2.069,0,1,0,11.55,2.069,2.07,2.07,0,0,0,13.619,4.139ZM6.326,18.559a4.069,4.069,0,0,1-3.362-6.346L1.35,10.6A6.254,6.254,0,0,0,0,14.489a6.33,6.33,0,0,0,10.221,4.98L8.607,17.856A4.037,4.037,0,0,1,6.326,18.559Z" transform="translate(0 16.262) rotate(-90)" fill="#838383"/></svg>