<svg xmlns="http://www.w3.org/2000/svg" width="16.189" height="20.815" viewBox="0 0 16.189 20.815"><path d="M19.08,0H1.735A1.735,1.735,0,0,0,0,1.735v12.72a1.735,1.735,0,0,0,1.735,1.735H19.08a1.735,1.735,0,0,0,1.735-1.735V1.735A1.735,1.735,0,0,0,19.08,0ZM6.36,3.469A2.313,2.313,0,1,1,4.047,5.782,2.315,2.315,0,0,1,6.36,3.469Zm4.047,8.557a.758.758,0,0,1-.809.694H3.122a.758.758,0,0,1-.809-.694v-.694A2.276,2.276,0,0,1,4.741,9.251h.181a3.722,3.722,0,0,0,2.876,0h.181a2.276,2.276,0,0,1,2.428,2.081ZM18.5,10.118a.29.29,0,0,1-.289.289h-5.2a.29.29,0,0,1-.289-.289V9.54a.29.29,0,0,1,.289-.289h5.2a.29.29,0,0,1,.289.289Zm0-2.313a.29.29,0,0,1-.289.289h-5.2a.29.29,0,0,1-.289-.289V7.227a.29.29,0,0,1,.289-.289h5.2a.29.29,0,0,1,.289.289Zm0-2.313a.29.29,0,0,1-.289.289h-5.2a.29.29,0,0,1-.289-.289V4.915a.29.29,0,0,1,.289-.289h5.2a.29.29,0,0,1,.289.289Z" transform="translate(0 20.815) rotate(-90)" fill="#838383"/></svg>