<svg xmlns="http://www.w3.org/2000/svg" width="20.815" height="18.213" viewBox="0 0 20.815 18.213"><path d="M17.725,6.5H.488A.489.489,0,0,1,0,6.017V4.553A1.952,1.952,0,0,1,1.951,2.6H3.9V.488A.489.489,0,0,1,4.391,0H6.017A.489.489,0,0,1,6.5.488V2.6h5.2V.488A.489.489,0,0,1,12.2,0h1.626a.489.489,0,0,1,.488.488V2.6h1.951a1.952,1.952,0,0,1,1.951,1.951V6.017A.489.489,0,0,1,17.725,6.5ZM.488,7.806H17.725a.489.489,0,0,1,.488.488v10.57a1.952,1.952,0,0,1-1.951,1.951H1.951A1.952,1.952,0,0,1,0,18.863V8.293A.489.489,0,0,1,.488,7.806ZM13.334,13.5a.489.489,0,0,0-.488-.488H10.407V10.57a.489.489,0,0,0-.488-.488H8.293a.489.489,0,0,0-.488.488v2.439H5.366a.489.489,0,0,0-.488.488v1.626a.489.489,0,0,0,.488.488H7.806V18.05a.489.489,0,0,0,.488.488H9.92a.489.489,0,0,0,.488-.488V15.611h2.439a.489.489,0,0,0,.488-.488Z" transform="translate(0 18.213) rotate(-90)" fill="#838383"/></svg>