<svg xmlns="http://www.w3.org/2000/svg" width="16.189" height="20.815" viewBox="0 0 16.189 20.815"><path d="M17.346,13.877v.578a1.735,1.735,0,0,1-1.735,1.735H1.735A1.735,1.735,0,0,1,0,14.455V5.2A1.735,1.735,0,0,1,1.735,3.469h.578v7.516A2.894,2.894,0,0,0,5.2,13.877Zm3.469-2.891V1.735A1.735,1.735,0,0,0,19.08,0H5.2A1.735,1.735,0,0,0,3.469,1.735v9.251A1.735,1.735,0,0,0,5.2,12.72H19.08A1.735,1.735,0,0,0,20.815,10.986ZM9.251,3.469A1.735,1.735,0,1,1,7.516,1.735,1.735,1.735,0,0,1,9.251,3.469Zm-3.469,5.2L7.788,6.667a.434.434,0,0,1,.613,0L9.829,8.095l4.9-4.9a.434.434,0,0,1,.613,0L18.5,6.36v4.047H5.782Z" transform="translate(0 20.815) rotate(-90)" fill="#838383"/></svg>