<svg width="26" height="26" viewBox="0 0 22 22" fill="none" xmlns="http://www.w3.org/2000/svg">
<path d="M18.6767 3.6875H2.5025C1.12041 3.6875 0 4.80791 0 6.19V7.14333C0 8.52542 1.12041 9.64583 2.5025 9.64583H18.6767C20.0588 9.64583 21.1792 8.52542 21.1792 7.14333V6.19C21.1792 4.80791 20.0588 3.6875 18.6767 3.6875Z" fill="#2795A0"/>
<path d="M18.9474 11.7908C18.7348 11.5449 18.4721 11.3471 18.1769 11.2107C17.8818 11.0743 17.5609 11.0025 17.2358 11H3.76992C3.47949 10.9997 3.19247 11.0625 2.92872 11.1841C2.66497 11.3057 2.4308 11.4831 2.24242 11.7042C2.05878 11.9222 1.92488 12.1776 1.85005 12.4526C1.77521 12.7276 1.76123 13.0157 1.80909 13.2967L2.56742 17.63C2.78409 18.995 3.24992 21.8333 7.26909 21.8333H13.6066C17.2466 21.8333 18.1241 19.8942 18.5249 17.7925L19.3483 13.3183C19.3981 13.0499 19.3881 12.7738 19.3188 12.5097C19.2495 12.2457 19.1227 12.0002 18.9474 11.7908ZM9.50075 17.2075C9.50075 17.4948 9.38662 17.7704 9.18345 17.9735C8.98029 18.1767 8.70474 18.2908 8.41742 18.2908C8.1301 18.2908 7.85455 18.1767 7.65139 17.9735C7.44822 17.7704 7.33409 17.4948 7.33409 17.2075V15.0408C7.33409 14.7535 7.44822 14.478 7.65139 14.2748C7.85455 14.0716 8.1301 13.9575 8.41742 13.9575C8.70474 13.9575 8.98029 14.0716 9.18345 14.2748C9.38662 14.478 9.50075 14.7535 9.50075 15.0408V17.2075ZM14.1049 17.2075C14.1049 17.4948 13.9908 17.7704 13.7876 17.9735C13.5845 18.1767 13.3089 18.2908 13.0216 18.2908C12.7343 18.2908 12.4587 18.1767 12.2556 17.9735C12.0524 17.7704 11.9383 17.4948 11.9383 17.2075V15.0408C11.9383 14.7535 12.0524 14.478 12.2556 14.2748C12.4587 14.0716 12.7343 13.9575 13.0216 13.9575C13.3089 13.9575 13.5845 14.0716 13.7876 14.2748C13.9908 14.478 14.1049 14.7535 14.1049 15.0408V17.2075Z" fill="#2795A0"/>
<path d="M4.08415 5.58329C3.81286 5.58026 3.55159 5.48036 3.34748 5.30162C3.24158 5.20528 3.15582 5.08889 3.09517 4.95919C3.03451 4.8295 3.00017 4.68906 2.99413 4.54601C2.98809 4.40297 3.01046 4.26014 3.05995 4.12579C3.10945 3.99144 3.18508 3.86823 3.28248 3.76329L6.25082 0.513291C6.34756 0.407303 6.46423 0.321408 6.59416 0.260509C6.7241 0.19961 6.86476 0.1649 7.00811 0.158362C7.15146 0.151823 7.29469 0.173583 7.42963 0.2224C7.56458 0.271217 7.68858 0.346134 7.79457 0.442874C7.90056 0.539615 7.98645 0.656284 8.04735 0.78622C8.10825 0.916156 8.14296 1.05682 8.1495 1.20017C8.15604 1.34352 8.13428 1.48675 8.08546 1.62169C8.03664 1.75663 7.96172 1.88064 7.86498 1.98662L4.88582 5.23662C4.78357 5.34688 4.65949 5.43464 4.52147 5.49433C4.38345 5.55401 4.23452 5.58431 4.08415 5.58329Z" fill="#2795A0"/>
<path d="M17.0841 5.58329C16.9337 5.58431 16.7848 5.55401 16.6467 5.49433C16.5087 5.43464 16.3846 5.34688 16.2824 5.23663L13.3032 1.98663C13.1079 1.77257 13.0055 1.48968 13.0187 1.20017C13.0319 0.910657 13.1596 0.638252 13.3736 0.442876C13.5877 0.247499 13.8706 0.145157 14.1601 0.158363C14.4496 0.171568 14.722 0.29924 14.9174 0.513292L17.8966 3.76329C17.994 3.86823 18.0696 3.99144 18.1191 4.12579C18.1686 4.26014 18.191 4.40297 18.1849 4.54602C18.1789 4.68906 18.1445 4.8295 18.0839 4.95919C18.0232 5.08889 17.9375 5.20528 17.8316 5.30162C17.6246 5.48279 17.3591 5.58286 17.0841 5.58329Z" fill="#2795A0"/>
</svg>
