<svg width="26" height="26" viewBox="0 0 22 22" fill="none" xmlns="http://www.w3.org/2000/svg">
<path d="M15.3333 9.10419C14.5489 9.10419 13.7967 8.79259 13.242 8.23796C12.6874 7.68332 12.3758 6.93107 12.3758 6.14669V0.166687H5.06331C3.91404 0.166687 2.81184 0.623233 1.99918 1.43589C1.18653 2.24855 0.72998 3.35075 0.72998 4.50002V17.5C0.72998 18.6493 1.18653 19.7515 1.99918 20.5641C2.81184 21.3768 3.91404 21.8334 5.06331 21.8334H16.98C18.1293 21.8334 19.2315 21.3768 20.0441 20.5641C20.8568 19.7515 21.3133 18.6493 21.3133 17.5V9.10419H15.3333ZM10.7291 17.5H6.39581C6.1085 17.5 5.83295 17.3859 5.62978 17.1827C5.42662 16.9796 5.31248 16.704 5.31248 16.4167C5.31248 16.1294 5.42662 15.8538 5.62978 15.6507C5.83295 15.4475 6.1085 15.3334 6.39581 15.3334H10.7291C11.0165 15.3334 11.292 15.4475 11.4952 15.6507C11.6983 15.8538 11.8125 16.1294 11.8125 16.4167C11.8125 16.704 11.6983 16.9796 11.4952 17.1827C11.292 17.3859 11.0165 17.5 10.7291 17.5ZM12.625 13.1667H6.39581C6.1085 13.1667 5.83295 13.0526 5.62978 12.8494C5.42662 12.6462 5.31248 12.3707 5.31248 12.0834C5.31248 11.796 5.42662 11.5205 5.62978 11.3173C5.83295 11.1142 6.1085 11 6.39581 11H12.625C12.9123 11 13.1878 11.1142 13.391 11.3173C13.5942 11.5205 13.7083 11.796 13.7083 12.0834C13.7083 12.3707 13.5942 12.6462 13.391 12.8494C13.1878 13.0526 12.9123 13.1667 12.625 13.1667Z" fill="#2795A0"/>
<path d="M14.5208 6.14669C14.5208 6.35643 14.6041 6.55758 14.7524 6.70589C14.9007 6.8542 15.1018 6.93752 15.3116 6.93752H21.2808C21.2664 6.57653 21.1199 6.2334 20.8691 5.97335L15.4524 0.556687C15.2002 0.316837 14.8686 0.17804 14.5208 0.166687V6.14669Z" fill="#2795A0"/>
</svg>
