<svg width="26" height="26" viewBox="0 0 22 22" fill="none" xmlns="http://www.w3.org/2000/svg">
<path d="M19.8834 5.64834L13.1667 0.957509C12.3527 0.439542 11.4031 0.175335 10.4386 0.198483C9.47406 0.221632 8.53821 0.53109 7.75002 1.08751L1.93252 5.63751C1.4131 6.08887 0.989262 6.63962 0.685993 7.25732C0.382724 7.87502 0.206154 8.54718 0.166687 9.23418V17.2617C0.169533 18.4714 0.650619 19.6309 1.50502 20.4874C2.35941 21.3438 3.5178 21.8276 4.72752 21.8333H17.2725C18.4813 21.8305 19.6397 21.349 20.4944 20.4943C21.3491 19.6396 21.8305 18.4812 21.8334 17.2725V9.38584C21.7927 8.66005 21.5977 7.95127 21.2614 7.30679C20.9252 6.6623 20.4554 6.09692 19.8834 5.64834ZM12.0834 17.6842C12.0834 17.9715 11.9692 18.247 11.7661 18.4502C11.5629 18.6534 11.2873 18.7675 11 18.7675C10.7127 18.7675 10.4372 18.6534 10.234 18.4502C10.0308 18.247 9.91669 17.9715 9.91669 17.6842V14.3367C9.91669 14.0494 10.0308 13.7738 10.234 13.5706C10.4372 13.3675 10.7127 13.2533 11 13.2533C11.2873 13.2533 11.5629 13.3675 11.7661 13.5706C11.9692 13.7738 12.0834 14.0494 12.0834 14.3367V17.6842Z" fill="#2795A0"/>
</svg>
