<svg width="26" height="26" viewBox="0 0 23 22" fill="none" xmlns="http://www.w3.org/2000/svg">
<path d="M18.1517 12.0834H4.68583C4.55682 12.0801 4.42868 12.1053 4.31053 12.1572C4.19239 12.2091 4.08715 12.2865 4.00231 12.3837C3.91748 12.481 3.85514 12.5957 3.81974 12.7198C3.78434 12.8439 3.77674 12.9743 3.79749 13.1017L4.54499 17.435C4.79416 18.9517 5.19499 20.685 8.18499 20.685H14.5225C17.545 20.685 18.0542 19.19 18.3792 17.5217L19.2025 13.1667C19.3108 12.56 18.715 12.0834 18.1517 12.0834Z" stroke="#D2D4E1" stroke-width="2" stroke-miterlimit="10"/>
<path d="M19.5383 5.85417C19.6331 5.85417 19.724 5.89183 19.7911 5.95888C19.8581 6.02592 19.8958 6.11685 19.8958 6.21167V7.08917C19.8903 7.18018 19.8502 7.26564 19.7837 7.32806C19.7173 7.39049 19.6295 7.42517 19.5383 7.425H3.43997C3.34515 7.425 3.25422 7.38733 3.18718 7.32029C3.12013 7.25325 3.08247 7.16231 3.08247 7.0675V6.19C3.09042 6.09989 3.13125 6.01586 3.19719 5.95392C3.26312 5.89198 3.34954 5.85648 3.43997 5.85417H19.5383ZM19.5383 3.6875H3.40747C2.73802 3.6875 2.09599 3.95344 1.62261 4.42681C1.14924 4.90018 0.883301 5.54222 0.883301 6.21167V7.12167C0.883301 7.79112 1.14924 8.43315 1.62261 8.90652C2.09599 9.3799 2.73802 9.64583 3.40747 9.64583H19.56C20.2294 9.64583 20.8714 9.3799 21.3448 8.90652C21.8182 8.43315 22.0841 7.79112 22.0841 7.12167V6.21167C22.0841 5.54222 21.8182 4.90018 21.3448 4.42681C20.8714 3.95344 20.2294 3.6875 19.56 3.6875H19.5383Z" fill="#D2D4E1"/>
<path d="M9.33331 15.0625V17.2292" stroke="#D2D4E1" stroke-width="2" stroke-miterlimit="10" stroke-linecap="round"/>
<path d="M7.97911 1.25L4.99994 4.5" stroke="#D2D4E1" stroke-width="2" stroke-miterlimit="10" stroke-linecap="round"/>
<path d="M15.0208 1.25L18 4.5" stroke="#D2D4E1" stroke-width="2" stroke-miterlimit="10" stroke-linecap="round"/>
<path d="M13.9374 15.0625V17.2292" stroke="#D2D4E1" stroke-width="2" stroke-miterlimit="10" stroke-linecap="round"/>
</svg>
