<svg width="26" height="26" viewBox="0 0 22 22" fill="none" xmlns="http://www.w3.org/2000/svg">
<path d="M10.5884 2.33335C11.0664 2.31878 11.5378 2.44701 11.9426 2.70169L18.6484 7.42502C19.2215 7.92803 19.5849 8.62778 19.6667 9.38586V17.2725C19.6667 17.9075 19.4145 18.5165 18.9655 18.9655C18.5165 19.4144 17.9076 19.6667 17.2726 19.6667H4.72758C4.09161 19.6638 3.48267 19.4092 3.03399 18.9585C2.5853 18.5077 2.33341 17.8977 2.33341 17.2617V9.23419C2.41475 8.51646 2.74429 7.84971 3.26508 7.34919L9.10425 2.79919C9.53658 2.4895 10.0567 2.32627 10.5884 2.33335ZM10.5884 0.166688C9.56619 0.149204 8.56735 0.473255 7.75008 1.08752L1.93258 5.63752C1.41316 6.08888 0.989323 6.63963 0.686054 7.25734C0.382785 7.87504 0.206215 8.54719 0.166748 9.23419V17.2617C0.169594 18.4714 0.65068 19.631 1.50508 20.4874C2.35947 21.3438 3.51786 21.8276 4.72758 21.8334H17.2726C18.4813 21.8305 19.6397 21.3491 20.4944 20.4944C21.3491 19.6397 21.8306 18.4813 21.8334 17.2725V9.38586C21.7927 8.66006 21.5978 7.95129 21.2615 7.3068C20.9252 6.66231 20.4554 6.09693 19.8834 5.64835L13.1667 0.957521C12.3966 0.447939 11.4901 0.183557 10.5667 0.199188L10.5884 0.166688Z" fill="#D2D4E1"/>
<path d="M11 17.6842V14.3367" stroke="#D2D4E1" stroke-width="2" stroke-miterlimit="10" stroke-linecap="round"/>
</svg>
