<svg width="26" height="26" viewBox="0 0 16 22" fill="none" xmlns="http://www.w3.org/2000/svg">
<path d="M7.81413 2.33335C8.60138 2.30893 9.36609 2.59824 9.94003 3.13765C10.514 3.67705 10.8501 4.42235 10.8745 5.2096C10.899 5.99686 10.6097 6.76156 10.0703 7.3355C9.53086 7.90944 8.78555 8.2456 7.9983 8.27002H7.66247C6.899 8.24185 6.17659 7.91719 5.64864 7.36497C5.1207 6.81275 4.82881 6.07648 4.83497 5.31252C4.83497 4.5224 5.14884 3.76463 5.70754 3.20593C6.26625 2.64723 7.02401 2.33335 7.81413 2.33335ZM7.81413 0.166687C6.48932 0.20839 5.23168 0.759695 4.3033 1.70573C3.37491 2.65176 2.84737 3.91954 2.83061 5.24491C2.81385 6.57028 3.30916 7.851 4.21333 8.8202C5.1175 9.7894 6.36079 10.3723 7.68413 10.4475H7.9983C9.32303 10.3677 10.5657 9.77921 11.4668 8.80488C12.3679 7.83054 12.8577 6.54575 12.8339 5.21883C12.8101 3.89191 12.2746 2.62549 11.3392 1.68405C10.4038 0.742619 9.14087 0.198983 7.81413 0.166687Z" fill="#D2D4E1"/>
<path d="M7.81416 13.99C9.33906 13.9474 10.8438 14.3462 12.1475 15.1383C12.4561 15.3099 12.7205 15.551 12.9198 15.8424C13.1191 16.1339 13.2479 16.4677 13.2958 16.8175C13.2491 17.1705 13.1198 17.5075 12.9184 17.8012C12.717 18.0948 12.4492 18.3368 12.1367 18.5075C10.8349 19.3052 9.32952 19.7079 7.80333 19.6667C6.27721 19.7072 4.77204 19.3046 3.46999 18.5075C3.15885 18.3379 2.89187 18.0976 2.69054 17.8059C2.48921 17.5143 2.35915 17.1794 2.31083 16.8283C2.35247 16.4847 2.47162 16.155 2.65928 15.8641C2.84695 15.5732 3.09823 15.3288 3.39416 15.1492C4.69736 14.3559 6.20245 13.957 7.7275 14.0008L7.81416 13.99ZM7.7275 11.8342C5.78635 11.796 3.87543 12.3188 2.22416 13.34C1.59735 13.6934 1.07003 14.1994 0.691227 14.8112C0.312423 15.423 0.0944256 16.1206 0.0574951 16.8392C0.0940131 17.555 0.312047 18.2498 0.691081 18.8581C1.07012 19.4665 1.59769 19.9684 2.22416 20.3167C3.89732 21.3621 5.84208 21.8897 7.81416 21.8333C9.75443 21.8679 11.6628 21.3372 13.3067 20.3058C13.934 19.9558 14.462 19.452 14.841 18.8418C15.22 18.2316 15.4376 17.535 15.4733 16.8175C15.4366 16.1003 15.2186 15.4041 14.8397 14.794C14.4607 14.184 13.9333 13.68 13.3067 13.3292C11.66 12.3066 9.7521 11.7835 7.81416 11.8233L7.7275 11.8342Z" fill="#D2D4E1"/>
</svg>
