<svg width="26" height="26" viewBox="0 0 16 22" fill="none" xmlns="http://www.w3.org/2000/svg">
<path d="M7.66997 0.166687C6.34515 0.20839 5.08752 0.759695 4.15913 1.70573C3.23074 2.65176 2.70321 3.91954 2.68645 5.24491C2.66969 6.57028 3.165 7.851 4.06917 8.8202C4.97334 9.7894 6.21663 10.3723 7.53997 10.4475H7.85413C9.17886 10.3677 10.4215 9.77921 11.3226 8.80488C12.2237 7.83054 12.7135 6.54575 12.6898 5.21883C12.666 3.89191 12.1305 2.62549 11.1951 1.68405C10.2597 0.742619 8.99671 0.198983 7.66997 0.166687Z" fill="#2795A0"/>
<path d="M13.1625 13.3292C11.4991 12.3401 9.59978 11.8181 7.66458 11.8181C5.72939 11.8181 3.83003 12.3401 2.16667 13.3292C1.53985 13.6825 1.01254 14.1886 0.633732 14.8004C0.254928 15.4121 0.0369305 16.1097 0 16.8283C0.036518 17.5442 0.254552 18.239 0.633586 18.8473C1.01262 19.4557 1.54019 19.9576 2.16667 20.3058C3.81385 21.3386 5.72614 21.8694 7.67 21.8333C9.61027 21.8679 11.5187 21.3372 13.1625 20.3058C13.7898 19.9558 14.3178 19.452 14.6968 18.8418C15.0758 18.2316 15.2934 17.535 15.3292 16.8175C15.2924 16.1003 15.0744 15.4041 14.6955 14.794C14.3166 14.184 13.7891 13.68 13.1625 13.3292Z" fill="#2795A0"/>
</svg>
