<svg width="26" height="26" viewBox="0 0 21 22" fill="none" xmlns="http://www.w3.org/2000/svg">
<path d="M13.6633 2.33333L18.625 7.295V17.5C18.625 18.0746 18.3967 18.6257 17.9904 19.0321C17.584 19.4384 17.0329 19.6667 16.4583 19.6667H4.54165C3.96701 19.6667 3.41591 19.4384 3.00958 19.0321C2.60325 18.6257 2.37498 18.0746 2.37498 17.5V4.5C2.37498 3.92536 2.60325 3.37426 3.00958 2.96793C3.41591 2.5616 3.96701 2.33333 4.54165 2.33333H13.6416H13.6633ZM13.945 0.166664H4.56331C3.41404 0.166664 2.31184 0.62321 1.49918 1.43587C0.686527 2.24853 0.22998 3.35072 0.22998 4.5V17.5C0.22998 18.6493 0.686527 19.7515 1.49918 20.5641C2.31184 21.3768 3.41404 21.8333 4.56331 21.8333H16.48C17.6293 21.8333 18.7315 21.3768 19.5441 20.5641C20.3568 19.7515 20.8133 18.6493 20.8133 17.5V7.0025C20.8214 6.80255 20.788 6.60311 20.7153 6.41668C20.6426 6.23025 20.5321 6.06087 20.3908 5.91916L14.9741 0.502497C14.6933 0.266355 14.333 0.146243 13.9666 0.166664H13.945Z" fill="#D2D4E1"/>
<path d="M5.89581 12.0833H12.125" stroke="#D2D4E1" stroke-width="2" stroke-linecap="round" stroke-linejoin="round"/>
<path d="M5.89581 16.4167H10.2291" stroke="#D2D4E1" stroke-width="2" stroke-linecap="round" stroke-linejoin="round"/>
<path d="M19.7083 8.02081H14.8333C14.5868 8.02225 14.3424 7.97476 14.1144 7.88108C13.8864 7.7874 13.6792 7.64941 13.5049 7.47509C13.3305 7.30077 13.1925 7.09359 13.0989 6.86556C13.0052 6.63752 12.9577 6.39317 12.9591 6.14665V1.52081" stroke="#D2D4E1" stroke-width="2" stroke-linecap="round" stroke-linejoin="round"/>
</svg>
