<svg width="27" height="30" viewBox="0 0 27 30" fill="none" xmlns="http://www.w3.org/2000/svg">
<path d="M13.4973 2.31397C12.3292 1.48595 9.9487 -0.221832 5.0841 0.036923C2.20821 0.192176 -0.253658 3.40074 0.322997 7.23771C1.01794 11.9618 3.58331 12.6494 3.64985 16.1093C3.65045 18.8363 4.08211 21.546 4.92884 24.1381C5.94168 26.9401 7.6125 29.0841 9.36465 29.0841C11.4864 29.0841 10.8433 22.7704 10.8433 21.314C10.8433 19.8576 11.516 18.2607 13.5121 18.2607L13.4973 2.31397Z" fill="#FEA6A2"/>
<path d="M10.5994 0.754047C12.1112 1.40213 13.793 1.53969 15.39 1.14588C17.4418 0.254067 19.6794 -0.126473 21.9107 0.0369249C24.7866 0.192178 27.2484 3.40074 26.6792 7.23772C25.9399 11.9618 23.4115 12.6494 23.3449 16.1093C23.3564 18.6132 22.9951 21.1048 22.2729 23.5023C21.2527 26.5483 19.397 29.121 17.534 29.121C15.4122 29.121 16.1663 22.7556 16.1663 21.2992C16.1663 19.8428 15.4935 18.2459 13.4974 18.2459C13.4974 9.67002 10.5994 0.754047 10.5994 0.754047Z" fill="#FEA6A2"/>
</svg>
