<svg width="36" height="27" viewBox="0 0 36 27" fill="none" xmlns="http://www.w3.org/2000/svg">
<path d="M13.6404 13.144C11.1785 12.033 8.601 12.424 5.98799 14.3349C5.88858 14.4034 5.77095 14.4406 5.65025 14.4416C5.5593 14.4416 5.46955 14.4208 5.3879 14.3807C5.30625 14.3407 5.23485 14.2824 5.1792 14.2105C5.13414 14.1493 5.10162 14.0797 5.08348 14.0059C5.06535 13.9321 5.06197 13.8554 5.07353 13.7803C5.08509 13.7051 5.11136 13.633 5.15085 13.5681C5.19033 13.5031 5.24225 13.4466 5.30363 13.4017C6.61926 12.3863 8.16856 11.717 9.80974 11.4553C8.06053 10.7383 6.52874 9.57724 5.36584 8.0868C5.32032 8.02611 5.2872 7.95705 5.26837 7.88355C5.24954 7.81006 5.24538 7.73358 5.2561 7.65848C5.26683 7.58337 5.29225 7.51112 5.3309 7.44584C5.36956 7.38056 5.42069 7.32353 5.48138 7.27801C5.54162 7.23133 5.61062 7.19723 5.68429 7.17774C5.75796 7.15825 5.8348 7.15376 5.91024 7.16453C5.98568 7.17531 6.05819 7.20114 6.12345 7.24048C6.18872 7.27982 6.24541 7.33188 6.29017 7.39355C7.82776 9.42886 9.84529 10.2288 11.7651 11.002C12.3783 11.2509 12.9916 11.4908 13.5426 11.7752C13.5672 11.0667 13.7462 10.3721 14.067 9.73993C14.9558 7.96237 17.0444 1.3854 10.3163 0.141105C3.14389 -1.19207 0.459773 7.25135 0.779734 11.5797C1.10858 15.757 3.82825 22.7783 8.9654 22.7783C13.7026 22.7783 15.8979 18.6366 14.2981 15.2148C13.9816 14.5593 13.7601 13.862 13.6404 13.144Z" fill="#816BF2"/>
<path d="M13.5516 11.8108C13.5346 12.2567 13.5614 12.7033 13.6316 13.144L13.7382 13.1884C15.0892 14.0327 15.9513 15.197 15.9513 17.5879V25.7202C15.9513 25.8734 16.0122 26.0204 16.1205 26.1287C16.2289 26.237 16.3758 26.2979 16.529 26.2979C16.6822 26.2979 16.8292 26.237 16.9375 26.1287C17.0459 26.0204 17.1067 25.8734 17.1067 25.7202V17.5879C17.1067 14.1749 15.5425 12.7796 13.5516 11.8108Z" fill="#816BF2"/>
<path d="M22.3595 13.1973C24.8214 12.0863 27.3988 12.4774 30.0119 14.3883C30.1113 14.4567 30.2289 14.4939 30.3496 14.4949C30.4708 14.4949 30.589 14.4568 30.6874 14.3859C30.7857 14.315 30.8593 14.2149 30.8976 14.0999C30.936 13.9849 30.9372 13.8607 30.901 13.7449C30.8649 13.6292 30.7932 13.5278 30.6962 13.455C29.3814 12.4383 27.8317 11.7689 26.1901 11.5086C27.9393 10.7917 29.4711 9.63057 30.634 8.14013C30.6807 8.07989 30.7148 8.01089 30.7343 7.93722C30.7538 7.86355 30.7583 7.78671 30.7475 7.71127C30.7367 7.63583 30.7109 7.56332 30.6715 7.49806C30.6322 7.43279 30.5801 7.3761 30.5185 7.33134C30.3959 7.23941 30.2418 7.19994 30.0901 7.2216C29.9385 7.24327 29.8016 7.32431 29.7097 7.44688C28.1721 9.49108 26.1545 10.2821 24.2348 11.0553C23.6215 11.3042 23.0171 11.5442 22.4572 11.8286C22.4339 11.1227 22.2549 10.4307 21.9328 9.80215C21.0441 8.02459 18.9554 1.43873 25.6835 0.194434C32.8559 -1.13874 35.5401 7.30468 35.2201 11.633C34.8824 15.8103 32.216 22.7961 27.0344 22.7961C22.2972 22.7961 20.1019 18.6633 21.7018 15.2415C22.0103 14.5921 22.2314 13.9047 22.3595 13.1973Z" fill="#816BF2"/>
<path d="M22.4396 11.8286C22.4619 12.286 22.4381 12.7446 22.3685 13.1973L22.2618 13.2417C20.9109 14.0594 20.0576 15.2148 20.0576 17.6412V25.7735C20.0553 25.9276 19.9925 26.0745 19.8827 26.1826C19.773 26.2907 19.6251 26.3513 19.4711 26.3512C19.3178 26.3512 19.1709 26.2904 19.0626 26.182C18.9542 26.0737 18.8933 25.9267 18.8933 25.7735V17.6412C18.8845 14.1927 20.4576 12.7973 22.4396 11.8286Z" fill="#816BF2"/>
</svg>
