<svg width="19" height="32" viewBox="0 0 19 32" fill="none" xmlns="http://www.w3.org/2000/svg">
<path d="M18.2285 0H0.764747C0.596876 0.0215068 0.438625 0.0937269 0.309334 0.207835C0.180043 0.321943 0.0853105 0.472998 0.0367129 0.642539C-0.0118846 0.812081 -0.0122424 0.992767 0.0356832 1.16252C0.0836088 1.33227 0.177742 1.48373 0.30658 1.5984L3.0174 4.31568V25.2068C3.0174 27.0085 3.70124 28.7363 4.91848 30.0103C6.13573 31.2843 7.78666 32 9.5081 32C11.2295 32 12.8805 31.2843 14.0977 30.0103C15.315 28.7363 15.9988 27.0085 15.9988 25.2068V4.30769L18.6944 1.5984C18.8234 1.48322 18.9175 1.33111 18.9651 1.16073C19.0126 0.990359 19.0116 0.809153 18.9621 0.639376C18.9127 0.469598 18.8169 0.318643 18.6866 0.205057C18.5562 0.0914705 18.397 0.0201997 18.2285 0ZM11.944 13.9301C12.2041 13.9285 12.4588 14.0078 12.6758 14.1578C12.8928 14.3079 13.0623 14.522 13.1629 14.7731C13.2635 15.0241 13.2906 15.3008 13.2408 15.5679C13.1909 15.8351 13.0665 16.0808 12.8831 16.2738C12.6997 16.4669 12.4657 16.5986 12.2107 16.6523C11.9557 16.706 11.6913 16.6792 11.4508 16.5754C11.2104 16.4716 11.0048 16.2954 10.8601 16.0692C10.7155 15.843 10.6383 15.5769 10.6382 15.3047C10.6382 14.9415 10.7756 14.5931 11.0202 14.3355C11.2649 14.0779 11.597 13.9322 11.944 13.9301ZM7.64489 11.6763C7.83883 11.6732 8.02928 11.7304 8.19201 11.8409C8.35475 11.9514 8.4824 12.11 8.55873 12.2966C8.63505 12.4832 8.6566 12.6894 8.62063 12.8889C8.58466 13.0884 8.49279 13.2721 8.35672 13.4168C8.22066 13.5615 8.04654 13.6605 7.85653 13.7013C7.66653 13.7421 7.46922 13.7228 7.28973 13.6458C7.11024 13.5689 6.95668 13.4378 6.84858 13.2693C6.74049 13.1007 6.68276 12.9023 6.68274 12.6993C6.68271 12.4307 6.78359 12.1729 6.9636 11.9815C7.14361 11.7901 7.38832 11.6805 7.64489 11.6763ZM13.5018 25.0549C13.5254 25.6208 13.4393 26.1858 13.2487 26.716C13.058 27.2461 12.7668 27.7303 12.3926 28.1395C12.0184 28.5486 11.5688 28.8742 11.0711 29.0967C10.5734 29.3191 10.0378 29.4338 9.49665 29.4338C8.95546 29.4338 8.41987 29.3191 7.92216 29.0967C7.42446 28.8742 6.97494 28.5486 6.6007 28.1395C6.22646 27.7303 5.93525 27.2461 5.74462 26.716C5.55399 26.1858 5.46789 25.6208 5.4915 25.0549V18.4456H13.5094L13.5018 25.0549Z" fill="#FD9B71"/>
</svg>
