<svg width="24" height="24" viewBox="0 0 24 24" fill="none" xmlns="http://www.w3.org/2000/svg">
<path d="M15.6096 6.59999C15.6096 4.60624 13.9934 2.98999 11.9996 2.98999C10.0059 2.98999 8.38965 4.60624 8.38965 6.59999V11.56C8.38965 13.5537 10.0059 15.17 11.9996 15.17C13.9934 15.17 15.6096 13.5537 15.6096 11.56V6.59999Z" stroke="white" stroke-opacity="0.8" stroke-width="2" stroke-linecap="round" stroke-linejoin="round"/>
<path d="M5.09961 9.88989V11.4199C5.09961 13.2499 5.82657 15.0049 7.12057 16.2989C8.41457 17.5929 10.1696 18.3199 11.9996 18.3199V18.3199C13.8296 18.3199 15.5846 17.5929 16.8786 16.2989C18.1726 15.0049 18.8996 13.2499 18.8996 11.4199V9.88989" stroke="white" stroke-opacity="0.8" stroke-width="2" stroke-linecap="round" stroke-linejoin="round"/>
<path d="M12 18.3201V21.0301" stroke="white" stroke-opacity="0.8" stroke-width="2" stroke-linecap="round" stroke-linejoin="round"/>
</svg>
