<svg width="70" height="86" viewBox="0 0 70 86" fill="none" xmlns="http://www.w3.org/2000/svg">
<path d="M45.7793 71.7937C45.7793 62.894 50.1503 58.7258 59.5682 58.7258H70V15.3087C70 13.3056 69.6054 11.3221 68.8389 9.47149C68.0723 7.62086 66.9488 5.93933 65.5323 4.52292C64.1159 3.10651 62.4344 1.98295 60.5838 1.2164C58.7332 0.449839 56.7497 0.0552979 54.7465 0.0552979H15.9934C11.9479 0.0552979 8.06818 1.66235 5.20761 4.52292C2.34704 7.38349 0.73999 11.2633 0.73999 15.3087V70.0588C0.73999 74.1043 2.34704 77.984 5.20761 80.8446C8.06818 83.7052 11.9479 85.3122 15.9934 85.3122H45.7793V71.7937ZM14.3036 22.4285H34.1984C34.7959 22.4285 35.369 22.6659 35.7915 23.0884C36.2141 23.5109 36.4515 24.084 36.4515 24.6816C36.4515 25.2791 36.2141 25.8522 35.7915 26.2747C35.369 26.6973 34.7959 26.9347 34.1984 26.9347H14.3036C13.706 26.9347 13.133 26.6973 12.7104 26.2747C12.2879 25.8522 12.0505 25.2791 12.0505 24.6816C12.0505 24.084 12.2879 23.5109 12.7104 23.0884C13.133 22.6659 13.706 22.4285 14.3036 22.4285ZM14.3036 37.8171H46.1172C46.7148 37.8171 47.2879 38.0545 47.7104 38.477C48.1329 38.8995 48.3703 39.4726 48.3703 40.0702C48.3703 40.6677 48.1329 41.2408 47.7104 41.6634C47.2879 42.0859 46.7148 42.3233 46.1172 42.3233H14.3036C13.706 42.3233 13.133 42.0859 12.7104 41.6634C12.2879 41.2408 12.0505 40.6677 12.0505 40.0702C12.0505 39.4726 12.2879 38.8995 12.7104 38.477C13.133 38.0545 13.706 37.8171 14.3036 37.8171ZM34.1984 58.2526H14.3036C13.706 58.2526 13.133 58.0152 12.7104 57.5927C12.2879 57.1702 12.0505 56.5971 12.0505 55.9995C12.0505 55.402 12.2879 54.8289 12.7104 54.4063C13.133 53.9838 13.706 53.7464 14.3036 53.7464H34.1984C34.7959 53.7464 35.369 53.9838 35.7915 54.4063C36.2141 54.8289 36.4515 55.402 36.4515 55.9995C36.4515 56.5971 36.2141 57.1702 35.7915 57.5927C35.369 58.0152 34.7959 58.2526 34.1984 58.2526Z" fill="#EEEEEE"/>
<path d="M59.5681 63.2321C52.5385 63.2321 50.2854 65.3274 50.2854 71.7938V85.3123C54.6339 80.3555 59.1175 75.2861 69.9549 63.2321H59.5681Z" fill="#EEEEEE"/>
</svg>
