<svg width="25" height="31" viewBox="0 0 25 31" fill="none" xmlns="http://www.w3.org/2000/svg">
<path d="M16.3483 25.7144C16.3483 22.5354 17.9096 21.0465 21.2737 21.0465H25V5.53771C25 4.82219 24.8591 4.11367 24.5853 3.45262C24.3114 2.79156 23.9101 2.19092 23.4042 1.68497C22.8982 1.17902 22.2976 0.777678 21.6365 0.503861C20.9754 0.230043 20.2669 0.0891113 19.5514 0.0891113H5.7086C4.26355 0.0891113 2.87768 0.663158 1.85587 1.68497C0.834057 2.70678 0.26001 4.09265 0.26001 5.53771V25.0947C0.26001 26.5398 0.834057 27.9256 1.85587 28.9474C2.87768 29.9692 4.26355 30.5433 5.7086 30.5433H16.3483V25.7144ZM5.10499 8.08092H12.2115C12.425 8.08092 12.6297 8.16571 12.7806 8.31664C12.9315 8.46758 13.0163 8.67228 13.0163 8.88573C13.0163 9.09918 12.9315 9.30389 12.7806 9.45482C12.6297 9.60576 12.425 9.69055 12.2115 9.69055H5.10499C4.89154 9.69055 4.68684 9.60576 4.5359 9.45482C4.38497 9.30389 4.30018 9.09918 4.30018 8.88573C4.30018 8.67228 4.38497 8.46758 4.5359 8.31664C4.68684 8.16571 4.89154 8.08092 5.10499 8.08092ZM5.10499 13.5778H16.469C16.6824 13.5778 16.8871 13.6626 17.0381 13.8135C17.189 13.9645 17.2738 14.1692 17.2738 14.3826C17.2738 14.5961 17.189 14.8008 17.0381 14.9517C16.8871 15.1026 16.6824 15.1874 16.469 15.1874H5.10499C4.89154 15.1874 4.68684 15.1026 4.5359 14.9517C4.38497 14.8008 4.30018 14.5961 4.30018 14.3826C4.30018 14.1692 4.38497 13.9645 4.5359 13.8135C4.68684 13.6626 4.89154 13.5778 5.10499 13.5778ZM12.2115 20.8775H5.10499C4.89154 20.8775 4.68684 20.7927 4.5359 20.6417C4.38497 20.4908 4.30018 20.2861 4.30018 20.0727C4.30018 19.8592 4.38497 19.6545 4.5359 19.5036C4.68684 19.3526 4.89154 19.2678 5.10499 19.2678H12.2115C12.425 19.2678 12.6297 19.3526 12.7806 19.5036C12.9315 19.6545 13.0163 19.8592 13.0163 20.0727C13.0163 20.2861 12.9315 20.4908 12.7806 20.6417C12.6297 20.7927 12.425 20.8775 12.2115 20.8775Z" fill="#50BAF4"/>
<path d="M21.2738 22.6561C18.7628 22.6561 17.958 23.4046 17.958 25.7144V30.5433C19.5113 28.7727 21.1129 26.9619 24.984 22.6561H21.2738Z" fill="#50BAF4"/>
</svg>
