<svg width="27" height="26" viewBox="0 0 27 26" fill="none" xmlns="http://www.w3.org/2000/svg">
<path d="M13.8143 4.33335C14.6015 4.30893 15.3662 4.59824 15.9402 5.13765C16.5141 5.67705 16.8502 6.42235 16.8747 7.2096C16.8991 7.99686 16.6098 8.76156 16.0704 9.3355C15.531 9.90944 14.7857 10.2456 13.9984 10.27H13.6626C12.8991 10.2419 12.1767 9.91719 11.6488 9.36497C11.1208 8.81275 10.8289 8.07648 10.8351 7.31252C10.8351 6.5224 11.149 5.76463 11.7077 5.20593C12.2664 4.64723 13.0241 4.33335 13.8143 4.33335ZM13.8143 2.16669C12.4894 2.20839 11.2318 2.75969 10.3034 3.70573C9.37503 4.65176 8.84749 5.91954 8.83073 7.24491C8.81397 8.57028 9.30929 9.851 10.2135 10.8202C11.1176 11.7894 12.3609 12.3723 13.6843 12.4475H13.9984C15.3232 12.3677 16.5658 11.7792 17.4669 10.8049C18.368 9.83054 18.8578 8.54575 18.834 7.21883C18.8103 5.89191 18.2748 4.62549 17.3394 3.68405C16.404 2.74262 15.141 2.19898 13.8143 2.16669Z" fill="#D2D4E1"/>
<path d="M13.8143 15.99C15.3392 15.9474 16.8439 16.3462 18.1476 17.1383C18.4562 17.3099 18.7206 17.551 18.9199 17.8424C19.1192 18.1339 19.248 18.4677 19.296 18.8175C19.2492 19.1705 19.1199 19.5075 18.9185 19.8012C18.7171 20.0948 18.4493 20.3368 18.1368 20.5075C16.835 21.3052 15.3296 21.7079 13.8035 21.6667C12.2773 21.7072 10.7722 21.3046 9.47012 20.5075C9.15897 20.3379 8.89199 20.0976 8.69066 19.8059C8.48933 19.5143 8.35927 19.1794 8.31095 18.8283C8.35259 18.4847 8.47174 18.155 8.65941 17.8641C8.84707 17.5732 9.09835 17.3288 9.39428 17.1492C10.6975 16.3559 12.2026 15.957 13.7276 16.0008L13.8143 15.99ZM13.7276 13.8342C11.7865 13.796 9.87556 14.3188 8.22428 15.34C7.59747 15.6934 7.07015 16.1994 6.69135 16.8112C6.31255 17.423 6.09455 18.1206 6.05762 18.8392C6.09414 19.555 6.31217 20.2498 6.6912 20.8581C7.07024 21.4665 7.59781 21.9684 8.22428 22.3167C9.89744 23.3621 11.8422 23.8897 13.8143 23.8333C15.7546 23.8679 17.663 23.3372 19.3068 22.3058C19.9341 21.9558 20.4621 21.452 20.8411 20.8418C21.2201 20.2316 21.4377 19.535 21.4735 18.8175C21.4367 18.1003 21.2187 17.4041 20.8398 16.794C20.4609 16.184 19.9334 15.68 19.3068 15.3292C17.6601 14.3066 15.7522 13.7835 13.8143 13.8233L13.7276 13.8342Z" fill="#D2D4E1"/>
</svg>
