<svg width="55" height="54" viewBox="0 0 55 54" fill="none" xmlns="http://www.w3.org/2000/svg">
<rect x="0.146332" width="54" height="54" rx="27" fill="#5BADFE"/>
<path d="M33.6463 18.3334C34.221 18.3334 34.7721 18.5616 35.1784 18.968C35.5847 19.3743 35.813 19.9254 35.813 20.5V33.5C35.813 34.0747 35.5847 34.6258 35.1784 35.0321C34.7721 35.4384 34.221 35.6667 33.6463 35.6667H20.6463C20.0717 35.6667 19.5206 35.4384 19.1143 35.0321C18.7079 34.6258 18.4797 34.0747 18.4797 33.5V20.5C18.4797 19.9254 18.7079 19.3743 19.1143 18.968C19.5206 18.5616 20.0717 18.3334 20.6463 18.3334H33.6463ZM33.6463 16.1667H20.6463C19.4971 16.1667 18.3949 16.6232 17.5822 17.4359C16.7695 18.2485 16.313 19.3507 16.313 20.5V33.5C16.313 34.6493 16.7695 35.7515 17.5822 36.5641C18.3949 37.3768 19.4971 37.8334 20.6463 37.8334H33.6463C34.7956 37.8334 35.8978 37.3768 36.7105 36.5641C37.5231 35.7515 37.9797 34.6493 37.9797 33.5V20.5C37.9797 19.3507 37.5231 18.2485 36.7105 17.4359C35.8978 16.6232 34.7956 16.1667 33.6463 16.1667Z" fill="white"/>
<path d="M23.9072 25.2342C25.3311 25.2342 26.4855 24.0847 26.4855 22.6667C26.4855 21.2487 25.3311 20.0992 23.9072 20.0992C22.4832 20.0992 21.3288 21.2487 21.3288 22.6667C21.3288 24.0847 22.4832 25.2342 23.9072 25.2342Z" fill="white"/>
<path d="M17.8297 33.955C17.8297 33.955 22.0005 31.1709 22.4988 30.8784C22.9057 30.6396 23.3744 30.5275 23.8453 30.5565C24.3161 30.5854 24.7676 30.754 25.1422 31.0409C26.063 31.81 26.4205 31.9292 27.0272 31.9509C27.6338 31.9725 28.0563 31.9509 29.053 31.0625C30.0497 30.1742 32.563 28.0834 33.0288 27.65C33.4929 27.2256 34.1008 26.9933 34.7297 27C35.2379 27.006 35.7306 27.1759 36.1346 27.4842C36.5386 27.7926 36.8323 28.2231 36.9722 28.7117C37.4272 30.0659 37.0913 33.9009 37.0913 33.9009L36.008 35.9809L33.1047 37.4759L28.5438 37.6167L21.7297 37.4975L18.4797 36.295L17.4722 34.41L17.8297 33.955Z" fill="white"/>
</svg>
