<svg width="25" height="24" viewBox="0 0 25 24" fill="none" xmlns="http://www.w3.org/2000/svg">
<path d="M21.5 6.95007H16.75" stroke="#12263C" stroke-width="2" stroke-linecap="round" stroke-linejoin="round"/>
<path d="M7.35 6.95007H3.5" stroke="#12263C" stroke-width="2" stroke-linecap="round" stroke-linejoin="round"/>
<path d="M10.95 10.1C12.6897 10.1 14.1 8.68975 14.1 6.95005C14.1 5.21035 12.6897 3.80005 10.95 3.80005C9.21035 3.80005 7.80005 5.21035 7.80005 6.95005C7.80005 8.68975 9.21035 10.1 10.95 10.1Z" stroke="#12263C" stroke-width="2" stroke-linecap="round" stroke-linejoin="round"/>
<path d="M21.4999 16.8501H18.1499" stroke="#12263C" stroke-width="2" stroke-linecap="round" stroke-linejoin="round"/>
<path d="M8.75 16.8501H3.5" stroke="#12263C" stroke-width="2" stroke-linecap="round" stroke-linejoin="round"/>
<path d="M14.5499 20.0001C16.2896 20.0001 17.6999 18.5898 17.6999 16.8501C17.6999 15.1104 16.2896 13.7001 14.5499 13.7001C12.8102 13.7001 11.3999 15.1104 11.3999 16.8501C11.3999 18.5898 12.8102 20.0001 14.5499 20.0001Z" stroke="#12263C" stroke-width="2" stroke-linecap="round" stroke-linejoin="round"/>
</svg>
