<svg width="30" height="30" viewBox="0 0 30 30" fill="none" xmlns="http://www.w3.org/2000/svg">
<path d="M23.37 0H6.62997C5.03867 0 3.51255 0.632141 2.38733 1.75736C1.26212 2.88258 0.629974 4.4087 0.629974 6V24C0.629974 25.5913 1.26212 27.1174 2.38733 28.2426C3.51255 29.3679 5.03867 30 6.62997 30H23.37C24.9613 30 26.4874 29.3679 27.6126 28.2426C28.7378 27.1174 29.37 25.5913 29.37 24V6C29.37 4.4087 28.7378 2.88258 27.6126 1.75736C26.4874 0.632141 24.9613 0 23.37 0ZM12.09 25.11C11.9468 25.2481 11.7776 25.3564 11.5922 25.4285C11.4068 25.5006 11.2088 25.5351 11.01 25.53H10.23V27.03H9.35997V22.5H11.01C11.2099 22.4969 11.4084 22.5337 11.5939 22.6084C11.7794 22.6831 11.948 22.7942 12.09 22.935C12.3694 23.216 12.5262 23.5962 12.5262 23.9925C12.5262 24.3888 12.3694 24.769 12.09 25.05V25.11ZM16.59 26.355C16.3877 26.5715 16.1407 26.7414 15.8661 26.8528C15.5915 26.9642 15.2959 27.0144 15 27H13.29V22.5H15C15.2815 22.4947 15.5609 22.5495 15.8196 22.6607C16.0782 22.7719 16.3102 22.937 16.5 23.145C16.7046 23.3516 16.8647 23.598 16.9704 23.8689C17.0762 24.1397 17.1254 24.4294 17.115 24.72C17.1329 25.0204 17.0874 25.3213 16.9814 25.6029C16.8755 25.8846 16.7114 26.1409 16.5 26.355H16.59ZM20.67 23.355H18.855V24.405H20.58V25.245H18.855V27H18V22.5H20.655L20.67 23.355ZM23.955 14.355C23.9319 14.5438 23.8692 14.7256 23.7709 14.8884C23.6727 15.0513 23.5412 15.1915 23.385 15.3C23.0699 15.5321 22.7086 15.6937 22.3256 15.774C21.9425 15.8542 21.5467 15.8511 21.165 15.765C19.7907 15.4975 18.5 14.9062 17.4 14.04C15.5786 14.3363 13.7971 14.8395 12.09 15.54C11.895 15.915 11.7 16.26 11.52 16.56C9.59997 19.695 8.51997 20.01 7.55997 20.055H7.49997C7.15593 20.0444 6.8244 19.9235 6.55431 19.7102C6.28422 19.4968 6.08988 19.2023 5.99997 18.87C5.68497 17.67 6.82497 16.425 9.38997 15.165C9.94497 14.895 10.485 14.655 11.025 14.43C11.79 12.84 12.615 10.74 13.23 9C12.8152 8.04049 12.5229 7.03256 12.36 6C12.225 4.71 12.675 3.12 13.62 2.835C13.8551 2.76248 14.1052 2.75341 14.3449 2.80873C14.5846 2.86406 14.8054 2.98179 14.985 3.15C15.3427 3.6055 15.5843 4.1412 15.6889 4.71089C15.7934 5.28059 15.7577 5.86716 15.585 6.42C15.3575 7.29449 15.0821 8.1558 14.76 9C15.1991 9.90664 15.7872 10.7331 16.5 11.445C16.935 11.865 17.37 12.255 17.805 12.6C19.097 12.4182 20.4059 12.388 21.705 12.51C23.88 12.69 24 14.01 24 14.415L23.955 14.355Z" fill="#5BADFE"/>
</svg>
