<svg width="70" height="86" viewBox="0 0 70 86" fill="none" xmlns="http://www.w3.org/2000/svg">
<path d="M45.0393 71.7384C45.0393 62.8387 49.4103 58.6705 58.8282 58.6705H69.26V15.2534C69.26 13.2503 68.8654 11.2668 68.0989 9.41619C67.3323 7.56556 66.2088 5.88403 64.7924 4.46762C63.3759 3.05121 61.6944 1.92765 59.8438 1.1611C57.9932 0.394541 56.0097 0 54.0066 0H15.2534C11.208 0 7.32819 1.60705 4.46762 4.46762C1.60705 7.32819 0 11.208 0 15.2534V70.0035C0 74.049 1.60705 77.9287 4.46762 80.7893C7.32819 83.6499 11.208 85.2569 15.2534 85.2569H45.0393V71.7384ZM13.5636 22.3732H33.4584C34.0559 22.3732 34.629 22.6106 35.0516 23.0331C35.4741 23.4556 35.7115 24.0287 35.7115 24.6263C35.7115 25.2238 35.4741 25.7969 35.0516 26.2194C34.629 26.642 34.0559 26.8794 33.4584 26.8794H13.5636C12.966 26.8794 12.393 26.642 11.9704 26.2194C11.5479 25.7969 11.3105 25.2238 11.3105 24.6263C11.3105 24.0287 11.5479 23.4556 11.9704 23.0331C12.393 22.6106 12.966 22.3732 13.5636 22.3732ZM13.5636 37.7618H45.3772C45.9748 37.7618 46.5479 37.9992 46.9704 38.4217C47.3929 38.8442 47.6303 39.4173 47.6303 40.0149C47.6303 40.6124 47.3929 41.1855 46.9704 41.6081C46.5479 42.0306 45.9748 42.268 45.3772 42.268H13.5636C12.966 42.268 12.393 42.0306 11.9704 41.6081C11.5479 41.1855 11.3105 40.6124 11.3105 40.0149C11.3105 39.4173 11.5479 38.8442 11.9704 38.4217C12.393 37.9992 12.966 37.7618 13.5636 37.7618ZM33.4584 58.1973H13.5636C12.966 58.1973 12.393 57.9599 11.9704 57.5374C11.5479 57.1149 11.3105 56.5418 11.3105 55.9442C11.3105 55.3467 11.5479 54.7736 11.9704 54.3511C12.393 53.9285 12.966 53.6911 13.5636 53.6911H33.4584C34.0559 53.6911 34.629 53.9285 35.0516 54.3511C35.4741 54.7736 35.7115 55.3467 35.7115 55.9442C35.7115 56.5418 35.4741 57.1149 35.0516 57.5374C34.629 57.9599 34.0559 58.1973 33.4584 58.1973Z" fill="#50BAF4"/>
<path d="M58.8281 63.1768C51.7985 63.1768 49.5454 65.2721 49.5454 71.7385V85.257C53.8939 80.3002 58.3775 75.2308 69.2149 63.1768H58.8281Z" fill="#50BAF4"/>
</svg>
